<svg width="17" height="17" viewBox="0 0 17 17" fill="none" xmlns="http://www.w3.org/2000/svg">
<g clip-path="url(#clip0_21_2748)">
<path d="M3.80693 13.1849H14.7056C14.739 13.1849 14.7713 13.1802 14.8024 13.1728C14.8049 13.1728 14.8069 13.1732 14.8094 13.1732C15.0421 13.1732 15.2311 12.9844 15.2311 12.7515V0.833778C15.2311 0.601015 15.0421 0.412109 14.8094 0.412109H14.7065H4.48132H3.80752C2.68516 0.412109 1.77223 1.32525 1.77223 2.4473C1.77223 2.46235 1.77519 2.47663 1.77665 2.49116C1.77519 3.52765 1.76234 13.0517 1.77519 14.3038C1.77439 14.3282 1.77139 14.3521 1.77139 14.3769C1.77139 15.4558 2.61619 16.3391 3.67881 16.4058C3.70013 16.4091 3.72103 16.4122 3.74315 16.4122H14.8094C15.042 16.4122 15.231 16.2234 15.231 15.9905V14.4033C15.231 14.1706 15.042 13.9816 14.8094 13.9816C14.5768 13.9816 14.3877 14.1706 14.3877 14.4033V15.5689H3.80693C3.16616 15.5689 2.64309 15.0601 2.61738 14.4257C2.618 14.4144 2.62006 14.4037 2.61985 14.3922C2.61943 14.3736 2.61881 14.3448 2.61839 14.3065C2.65524 13.6821 3.17347 13.1849 3.80693 13.1849ZM4.09445 2.4473C4.09445 2.21454 4.28336 2.02563 4.51612 2.02563C4.74888 2.02563 4.93779 2.21454 4.93779 2.4473V11.0125C4.93779 11.2452 4.74888 11.4342 4.51612 11.4342C4.28336 11.4342 4.09445 11.2451 4.09445 11.0125V2.4473Z" fill="white"/>
</g>
<defs>
<clipPath id="clip0_21_2748">
<rect width="16" height="16" fill="white" transform="translate(0.5 0.412109)"/>
</clipPath>
</defs>
</svg>
