<svg width="54" height="54" viewBox="0 0 54 54" fill="none" xmlns="http://www.w3.org/2000/svg">
<path d="M18.6667 37.3333H24V16H18.6667V37.3333ZM29.3333 37.3333H34.6667V16H29.3333V37.3333ZM26.6667 53.3333C22.9778 53.3333 19.5111 52.6329 16.2667 51.232C13.0222 49.8311 10.2 47.9316 7.8 45.5333C5.4 43.1333 3.50044 40.3111 2.10133 37.0667C0.702222 33.8222 0.00177778 30.3556 0 26.6667C0 22.9778 0.700445 19.5111 2.10133 16.2667C3.50222 13.0222 5.40178 10.2 7.8 7.8C10.2 5.4 13.0222 3.50044 16.2667 2.10133C19.5111 0.702222 22.9778 0.00177778 26.6667 0C30.3556 0 33.8222 0.700445 37.0667 2.10133C40.3111 3.50222 43.1333 5.40178 45.5333 7.8C47.9333 10.2 49.8338 13.0222 51.2347 16.2667C52.6356 19.5111 53.3351 22.9778 53.3333 26.6667C53.3333 30.3556 52.6329 33.8222 51.232 37.0667C49.8311 40.3111 47.9316 43.1333 45.5333 45.5333C43.1333 47.9333 40.3111 49.8338 37.0667 51.2347C33.8222 52.6356 30.3556 53.3351 26.6667 53.3333Z" fill="white"/>
</svg>
