<svg width="42" height="42" viewBox="0 0 42 42" fill="none" xmlns="http://www.w3.org/2000/svg">
<path fill-rule="evenodd" clip-rule="evenodd" d="M37.5463 9.47807C37.7126 9.73043 37.7867 10.0324 37.7561 10.3331C37.7254 10.6338 37.592 10.9146 37.3783 11.1283L21.2906 27.2143C21.126 27.3788 20.9206 27.4966 20.6956 27.5556L13.9948 29.3056C13.7733 29.3633 13.5406 29.3622 13.3196 29.3022C13.0987 29.2422 12.8974 29.1255 12.7355 28.9636C12.5736 28.8018 12.4569 28.6004 12.3969 28.3795C12.337 28.1586 12.3358 27.9258 12.3936 27.7043L14.1436 21.0053C14.1946 20.8042 14.291 20.6175 14.4253 20.4593L30.5726 4.32257C30.8187 4.07678 31.1522 3.93872 31.5001 3.93872C31.8479 3.93872 32.1815 4.07678 32.4276 4.32257L37.3783 9.27157C37.4411 9.33458 37.4974 9.40376 37.5463 9.47807ZM34.5941 10.1991L31.5001 7.10682L16.5936 22.0133L15.4998 26.2011L19.6876 25.1073L34.5941 10.1991Z" fill="black"/>
<path d="M34.3712 30.03C34.8496 25.942 35.0023 21.8223 34.828 17.71C34.8242 17.6132 34.8404 17.5165 34.8756 17.4262C34.9109 17.3359 34.9644 17.2538 35.0327 17.185L36.7547 15.463C36.8018 15.4157 36.8615 15.383 36.9267 15.3688C36.9919 15.3546 37.0598 15.3595 37.1223 15.383C37.1848 15.4065 37.2391 15.4475 37.2789 15.5011C37.3186 15.5547 37.342 15.6187 37.3462 15.6853C37.6703 20.57 37.5473 25.474 36.9787 30.3363C36.5657 33.8748 33.7237 36.6485 30.201 37.0423C24.0853 37.7196 17.9136 37.7196 11.798 37.0423C8.27699 36.6485 5.43324 33.8748 5.02024 30.3363C4.29469 24.1333 4.29469 17.8668 5.02024 11.6638C5.43324 8.1253 8.27524 5.35155 11.798 4.9578C16.4396 4.44309 21.1163 4.3184 25.7787 4.58505C25.8455 4.58984 25.9094 4.61365 25.963 4.65367C26.0166 4.69368 26.0577 4.74822 26.0812 4.81083C26.1048 4.87344 26.1099 4.94149 26.096 5.00693C26.0821 5.07236 26.0497 5.13244 26.0027 5.18005L24.265 6.91605C24.1969 6.98386 24.1157 7.03701 24.0263 7.07222C23.9369 7.10744 23.8413 7.12397 23.7452 7.1208C19.8546 6.98854 15.9594 7.13768 12.0902 7.56705C10.9596 7.69218 9.90423 8.19481 9.09451 8.99374C8.28479 9.79266 7.76804 10.8412 7.62774 11.97C6.92607 17.9696 6.92607 24.0305 7.62774 30.03C7.76804 31.1589 8.28479 32.2074 9.09451 33.0064C9.90423 33.8053 10.9596 34.3079 12.0902 34.433C17.9615 35.0893 24.0375 35.0893 29.9105 34.433C31.0411 34.3079 32.0965 33.8053 32.9062 33.0064C33.7159 32.2074 34.2309 31.1589 34.3712 30.03Z" fill="black"/>
</svg>
