<svg width="22" height="22" viewBox="0 0 22 22" fill="none" xmlns="http://www.w3.org/2000/svg">
<path d="M14.1982 9.13993L10.0349 4.97935C9.86217 4.82316 9.63598 4.73938 9.40317 4.74536C9.17036 4.75133 8.94877 4.84661 8.78427 5.01146C8.61977 5.17631 8.52496 5.39811 8.51948 5.63093C8.51399 5.86375 8.59825 6.08977 8.75481 6.26218L12.9154 10.4228C13.0855 10.5929 13.181 10.8236 13.181 11.0642C13.181 11.3047 13.0855 11.5355 12.9154 11.7056L8.75481 15.8662C8.58469 16.0364 8.48917 16.2673 8.48926 16.5079C8.48934 16.7486 8.58503 16.9794 8.75526 17.1495C8.9255 17.3196 9.15634 17.4151 9.397 17.415C9.63766 17.4149 9.86843 17.3192 10.0385 17.149L14.1982 12.9884C14.7085 12.478 14.9951 11.7859 14.9951 11.0642C14.9951 10.3425 14.7085 9.65033 14.1982 9.13993Z" fill="#64748B"/>
</svg>
