<svg width="22" height="22" viewBox="0 0 22 22" fill="none" xmlns="http://www.w3.org/2000/svg">
<path d="M9.71566 11.7056C9.54558 11.5355 9.45004 11.3047 9.45004 11.0642C9.45004 10.8236 9.54558 10.5929 9.71566 10.4228L13.8753 6.26217C14.0406 6.09107 14.132 5.8619 14.13 5.62402C14.1279 5.38615 14.0325 5.1586 13.8643 4.99039C13.6961 4.82219 13.4685 4.72677 13.2307 4.7247C12.9928 4.72264 12.7636 4.81408 12.5925 4.97934L8.43555 9.13993C7.92531 9.65032 7.63867 10.3425 7.63867 11.0642C7.63867 11.7859 7.92531 12.478 8.43555 12.9884L12.5961 17.149C12.7672 17.3143 12.9964 17.4057 13.2343 17.4036C13.4722 17.4016 13.6997 17.3062 13.8679 17.138C14.0361 16.9697 14.1315 16.7422 14.1336 16.5043C14.1357 16.2665 14.0442 16.0373 13.879 15.8662L9.71566 11.7056Z" fill="#64748B"/>
</svg>
