<svg width="21" height="21" viewBox="0 0 21 21" fill="none" xmlns="http://www.w3.org/2000/svg">
<g clip-path="url(#clip0_18_2573)">
<path d="M10.5 10.5C11.5136 10.5 12.5045 10.1994 13.3473 9.63628C14.1901 9.07314 14.847 8.27273 15.2349 7.33625C15.6228 6.39978 15.7243 5.36932 15.5265 4.37516C15.3288 3.38101 14.8407 2.46782 14.1239 1.75108C13.4072 1.03434 12.494 0.546227 11.4998 0.348478C10.5057 0.150728 9.47522 0.252221 8.53875 0.64012C7.60228 1.02802 6.80186 1.6849 6.23872 2.5277C5.67558 3.37051 5.375 4.36137 5.375 5.375C5.37636 6.73382 5.91675 8.0366 6.87758 8.99743C7.83841 9.95826 9.14118 10.4986 10.5 10.5ZM10.5 1.95834C11.1758 1.95834 11.8363 2.15872 12.3982 2.53415C12.9601 2.90958 13.398 3.44319 13.6566 4.0675C13.9152 4.69181 13.9828 5.37879 13.851 6.04156C13.7192 6.70433 13.3938 7.31312 12.9159 7.79095C12.4381 8.26878 11.8293 8.59419 11.1666 8.72602C10.5038 8.85785 9.81681 8.79019 9.1925 8.53159C8.56818 8.27299 8.03457 7.83507 7.65915 7.2732C7.28372 6.71133 7.08333 6.05076 7.08333 5.375C7.08333 4.46885 7.4433 3.5998 8.08405 2.95905C8.7248 2.3183 9.59384 1.95834 10.5 1.95834Z" fill="#316D86"/>
<path d="M10.5 12.2084C8.46184 12.2106 6.50781 13.0213 5.06661 14.4625C3.62542 15.9037 2.81476 17.8577 2.8125 19.8959C2.8125 20.1224 2.90249 20.3397 3.06268 20.4999C3.22287 20.6601 3.44013 20.75 3.66667 20.75C3.89321 20.75 4.11047 20.6601 4.27065 20.4999C4.43084 20.3397 4.52083 20.1224 4.52083 19.8959C4.52083 18.3101 5.15078 16.7893 6.27209 15.668C7.3934 14.5467 8.91423 13.9167 10.5 13.9167C12.0858 13.9167 13.6066 14.5467 14.7279 15.668C15.8492 16.7893 16.4792 18.3101 16.4792 19.8959C16.4792 20.1224 16.5692 20.3397 16.7293 20.4999C16.8895 20.6601 17.1068 20.75 17.3333 20.75C17.5599 20.75 17.7771 20.6601 17.9373 20.4999C18.0975 20.3397 18.1875 20.1224 18.1875 19.8959C18.1852 17.8577 17.3746 15.9037 15.9334 14.4625C14.4922 13.0213 12.5382 12.2106 10.5 12.2084Z" fill="#316D86"/>
</g>
<defs>
<clipPath id="clip0_18_2573">
<rect width="20.5" height="20.5" fill="white" transform="translate(0.25 0.25)"/>
</clipPath>
</defs>
</svg>
