<svg width="21" height="20" viewBox="0 0 21 20" fill="none" xmlns="http://www.w3.org/2000/svg">
<g clip-path="url(#clip0_18_1420)">
<path d="M10 14.2632C8.86905 14.2632 7.90774 13.9408 7.11607 13.2961C6.3244 12.6513 5.92857 11.8684 5.92857 10.9474V4.31579C5.92857 3.39474 6.3244 2.61184 7.11607 1.96711C7.90774 1.32237 8.86905 1 10 1C11.131 1 12.0923 1.32237 12.8839 1.96711C13.6756 2.61184 14.0714 3.39474 14.0714 4.31579V10.9474C14.0714 11.8684 13.6756 12.6513 12.8839 13.2961C12.0923 13.9408 11.131 14.2632 10 14.2632ZM8.64286 22V18.6013C6.29048 18.3434 4.34524 17.4868 2.80714 16.0316C1.26905 14.5763 0.5 12.8816 0.5 10.9474H3.21429C3.21429 12.4763 3.87612 13.7798 5.19979 14.8578C6.52345 15.9358 8.12352 16.4744 10 16.4737C11.8774 16.4737 13.4779 15.9347 14.8016 14.8567C16.1252 13.7787 16.7866 12.4756 16.7857 10.9474H19.5C19.5 12.8816 18.731 14.5763 17.1929 16.0316C15.6548 17.4868 13.7095 18.3434 11.3571 18.6013V22H8.64286Z" fill="white"/>
</g>
<defs>
<clipPath id="clip0_18_1420">
<rect width="20" height="20" fill="white" transform="translate(0.5)"/>
</clipPath>
</defs>
</svg>
