<svg width="20" height="21" viewBox="0 0 20 21" fill="none" xmlns="http://www.w3.org/2000/svg">
<path d="M19.9999 7.56661V17.1666C19.9999 17.3876 19.9121 17.5996 19.7558 17.7559C19.5996 17.9121 19.3876 17.9999 19.1666 17.9999C18.9456 17.9999 18.7336 17.9121 18.5773 17.7559C18.4211 17.5996 18.3333 17.3876 18.3333 17.1666V10.2933L12.1666 13.2399C11.5164 13.6237 10.7741 13.8236 10.0191 13.8183C9.2273 13.8195 8.44989 13.6067 7.76909 13.2024L1.61909 10.2749C1.13566 10.015 0.730601 9.63039 0.445944 9.16108C0.161286 8.69176 0.00740274 8.15482 0.000260471 7.60597C-0.0068818 7.05713 0.132977 6.51636 0.405326 6.0398C0.677674 5.56324 1.07259 5.16823 1.54909 4.89578C1.57159 4.88245 1.59576 4.86995 1.61909 4.85828L7.83326 1.89328C8.50415 1.508 9.26556 1.30839 10.0392 1.31498C10.8128 1.32157 11.5707 1.53412 12.2349 1.93078L18.3808 4.85828C18.8657 5.1266 19.271 5.51852 19.5554 5.99422C19.8398 6.46992 19.9931 7.01243 19.9999 7.56661ZM10.0183 15.4833C8.95207 15.4856 7.9042 15.2062 6.98076 14.6733L3.33326 12.9324V15.1824C3.33375 16.072 3.61856 16.9382 4.14611 17.6545C4.67367 18.3708 5.41635 18.8997 6.26576 19.1641C7.47937 19.5126 8.73737 19.6819 9.99993 19.6666C11.2626 19.6808 12.5206 19.5104 13.7341 19.1608C14.5835 18.8964 15.3262 18.3675 15.8537 17.6512C16.3813 16.9349 16.6661 16.0687 16.6666 15.1791V12.9366L12.9508 14.7116C12.0588 15.2241 11.0469 15.4909 10.0183 15.4849V15.4833Z" fill="white"/>
</svg>
