<svg width="51" height="51" viewBox="0 0 51 51" fill="none" xmlns="http://www.w3.org/2000/svg">
<g clip-path="url(#clip0_18_2208)">
<path d="M34.0604 19.6503V15.4698H17.3387V19.6503C14.568 19.6536 11.9116 20.7557 9.9524 22.715C7.99317 24.6742 6.89101 27.3305 6.8877 30.1013V40.5523C6.89101 43.3231 7.99317 45.9795 9.9524 47.9387C11.9116 49.8979 14.568 51.0001 17.3387 51.0034H34.0604C36.8312 51.0001 39.4875 49.8979 41.4468 47.9387C43.406 45.9795 44.5081 43.3231 44.5115 40.5523V30.1013C44.5081 27.3305 43.406 24.6742 41.4468 22.715C39.4875 20.7557 36.8312 19.6536 34.0604 19.6503ZM31.9702 36.3719H27.7898V40.5523C27.7898 41.1067 27.5696 41.6384 27.1776 42.0304C26.7856 42.4223 26.2539 42.6426 25.6996 42.6426C25.1452 42.6426 24.6136 42.4223 24.2216 42.0304C23.8296 41.6384 23.6094 41.1067 23.6094 40.5523V36.3719H19.4289C18.8746 36.3719 18.3429 36.1517 17.9509 35.7597C17.559 35.3677 17.3387 34.8361 17.3387 34.2817C17.3387 33.7274 17.559 33.1957 17.9509 32.8037C18.3429 32.4117 18.8746 32.1915 19.4289 32.1915H23.6094V28.0111C23.6094 27.4567 23.8296 26.9251 24.2216 26.5331C24.6136 26.1411 25.1452 25.9209 25.6996 25.9209C26.2539 25.9209 26.7856 26.1411 27.1776 26.5331C27.5696 26.9251 27.7898 27.4567 27.7898 28.0111V32.1915H31.9702C32.5246 32.1915 33.0562 32.4117 33.4482 32.8037C33.8402 33.1957 34.0604 33.7274 34.0604 34.2817C34.0604 34.8361 33.8402 35.3677 33.4482 35.7597C33.0562 36.1517 32.5246 36.3719 31.9702 36.3719ZM33.0153 11.2894H18.3838C16.998 11.2894 15.6688 10.7389 14.6888 9.7589C13.7089 8.77893 13.1583 7.4498 13.1583 6.0639C13.1583 4.67801 13.7089 3.34887 14.6888 2.3689C15.6688 1.38892 16.998 0.838379 18.3838 0.838379L33.0153 0.838379C34.4012 0.838379 35.7303 1.38892 36.7103 2.3689C37.6903 3.34887 38.2408 4.67801 38.2408 6.0639C38.2408 7.4498 37.6903 8.77893 36.7103 9.7589C35.7303 10.7389 34.4012 11.2894 33.0153 11.2894Z" fill="#52B6DF"/>
</g>
<defs>
<clipPath id="clip0_18_2208">
<rect width="50.165" height="50.165" fill="white" transform="translate(0.617188 0.838379)"/>
</clipPath>
</defs>
</svg>
