<svg width="51" height="51" viewBox="0 0 51 51" fill="none" xmlns="http://www.w3.org/2000/svg">
<g clip-path="url(#clip0_18_2223)">
<path d="M46.6204 5.35942C45.4288 4.36523 44.0308 3.64889 42.5279 3.26239C41.0249 2.8759 39.4548 2.82896 37.9314 3.12498L34.2443 4.02795C32.3201 4.38056 30.5805 5.3967 29.3282 6.89953C28.0759 8.40236 27.3902 10.2967 27.3905 12.2529V44.5822C26.0044 44.7849 24.5962 44.7849 23.2101 44.5822V12.2529C23.217 10.3148 22.5472 8.43497 21.3161 6.93795C20.0851 5.44093 18.3701 4.4206 16.4671 4.05304L12.55 3.0999C11.0433 2.82419 9.49439 2.88304 8.01295 3.27229C6.5315 3.66154 5.15373 4.37168 3.97715 5.35242C2.80057 6.33317 1.85396 7.56055 1.20431 8.94769C0.554669 10.3348 0.217875 11.8478 0.217773 13.3795L0.217773 35.9392C0.217894 38.3864 1.0768 40.756 2.64478 42.6349C4.21277 44.5138 6.39039 45.7829 8.79808 46.2209L21.9371 48.61C24.161 49.0141 26.4395 49.0141 28.6634 48.61L41.8129 46.2209C44.2187 45.7807 46.3939 44.5107 47.9598 42.632C49.5257 40.7533 50.3831 38.3849 50.3828 35.9392V13.3795C50.3837 11.8484 50.0471 10.3358 49.3968 8.94954C48.7465 7.56331 47.7985 6.3375 46.6204 5.35942Z" fill="#4178D4"/>
</g>
<defs>
<clipPath id="clip0_18_2223">
<rect width="50.165" height="50.165" fill="white" transform="translate(0.217773 0.838379)"/>
</clipPath>
</defs>
</svg>
