<svg width="51" height="51" viewBox="0 0 51 51" fill="none" xmlns="http://www.w3.org/2000/svg">
<g clip-path="url(#clip0_18_2176)">
<path d="M48.276 27.3905H2.29138C1.73702 27.3905 1.20537 27.1703 0.81338 26.7783C0.42139 26.3863 0.201172 25.8546 0.201172 25.3003C0.201172 24.7459 0.42139 24.2143 0.81338 23.8223C1.20537 23.4303 1.73702 23.2101 2.29138 23.2101H48.276C48.8303 23.2101 49.362 23.4303 49.754 23.8223C50.146 24.2143 50.3662 24.7459 50.3662 25.3003C50.3662 25.8546 50.146 26.3863 49.754 26.7783C49.362 27.1703 48.8303 27.3905 48.276 27.3905ZM39.7772 15.1126C40.0399 13.9978 39.9176 12.827 39.4304 11.7906C38.9431 10.7541 38.1194 9.91306 37.0934 9.40422L20.4093 1.11236C19.3678 0.520897 18.1903 0.210822 16.9925 0.212655C15.7948 0.214487 14.6182 0.528164 13.5785 1.12281C12.6727 1.6478 11.9237 2.40544 11.4092 3.31724C10.8947 4.22904 10.6333 5.26184 10.6522 6.30862V12.759C10.6522 14.4221 11.3129 16.017 12.4888 17.193C13.6648 18.369 15.2598 19.0296 16.9228 19.0296H34.3092C35.5329 19.1093 36.7464 18.7626 37.7433 18.0485C38.7402 17.3343 39.459 16.2969 39.7772 15.1126ZM20.3257 49.53L37.1164 41.1859C38.1366 40.6743 38.9543 39.8335 39.4372 38.7994C39.9201 37.7653 40.0399 36.5986 39.7772 35.4879C39.459 34.3037 38.7402 33.2662 37.7433 32.552C36.7464 31.8379 35.5329 31.4912 34.3092 31.5709H16.9228C15.2598 31.5709 13.6648 32.2315 12.4888 33.4075C11.3129 34.5835 10.6522 36.1784 10.6522 37.8415V44.2898C10.6331 45.3366 10.8944 46.3695 11.4089 47.2814C11.9235 48.1932 12.6725 48.9508 13.5785 49.4756C14.6143 50.0769 15.7921 50.3901 16.9897 50.3828C18.1561 50.3863 19.3041 50.0928 20.3257 49.53Z" fill="#B45309"/>
</g>
<defs>
<clipPath id="clip0_18_2176">
<rect width="50.165" height="50.165" fill="white" transform="translate(0.201172 0.217773)"/>
</clipPath>
</defs>
</svg>
