<svg width="51" height="51" viewBox="0 0 51 51" fill="none" xmlns="http://www.w3.org/2000/svg">
<g clip-path="url(#clip0_18_2192)">
<path d="M39.9151 6.79858H10.6522C7.88145 6.8019 5.22511 7.90406 3.26588 9.86329C1.30665 11.8225 0.204491 14.4789 0.201172 17.2496L0.201172 29.7909C0.204491 32.5617 1.30665 35.218 3.26588 37.1772C5.22511 39.1365 7.88145 40.2386 10.6522 40.2419H23.1935V42.3321H16.9228C16.3685 42.3321 15.8368 42.5524 15.4448 42.9443C15.0529 43.3363 14.8326 43.868 14.8326 44.4224C14.8326 44.9767 15.0529 45.5084 15.4448 45.9004C15.8368 46.2923 16.3685 46.5126 16.9228 46.5126H33.6445C34.1989 46.5126 34.7305 46.2923 35.1225 45.9004C35.5145 45.5084 35.7347 44.9767 35.7347 44.4224C35.7347 43.868 35.5145 43.3363 35.1225 42.9443C34.7305 42.5524 34.1989 42.3321 33.6445 42.3321H27.3739V40.2419H39.9151C42.6859 40.2386 45.3423 39.1365 47.3015 37.1772C49.2607 35.218 50.3629 32.5617 50.3662 29.7909V17.2496C50.3629 14.4789 49.2607 11.8225 47.3015 9.86329C45.3423 7.90406 42.6859 6.8019 39.9151 6.79858Z" fill="#2A714F"/>
</g>
<defs>
<clipPath id="clip0_18_2192">
<rect width="50.165" height="50.165" fill="white" transform="translate(0.201172 0.528076)"/>
</clipPath>
</defs>
</svg>
