<svg width="51" height="51" viewBox="0 0 51 51" fill="none" xmlns="http://www.w3.org/2000/svg">
<g clip-path="url(#clip0_18_2185)">
<path d="M43.4396 15.981C41.525 17.8956 41.9619 21.913 43.4919 24.6909C44.0759 25.7922 44.2451 27.0666 43.9686 28.2821C43.6921 29.4977 42.9884 30.5735 41.9854 31.3139C40.9825 32.0542 39.7471 32.4098 38.5041 32.316C37.261 32.2222 36.093 31.6852 35.2126 30.8027L20.1087 15.6988C19.2315 14.8173 18.699 13.6506 18.6079 12.4103C18.5168 11.17 18.873 9.93804 19.6119 8.93774C20.3509 7.93743 21.4238 7.23494 22.6361 6.95757C23.8485 6.6802 25.1201 6.8463 26.2205 7.42578C28.9984 8.95372 33.0158 9.39267 34.9304 7.47804L40.112 2.29014C41.2581 1.19552 42.7819 0.584717 44.3667 0.584717C45.9514 0.584717 47.4753 1.19552 48.6213 2.29014C49.1809 2.84921 49.6249 3.5131 49.9278 4.24385C50.2307 4.9746 50.3866 5.75789 50.3866 6.54894C50.3866 7.33998 50.2307 8.12327 49.9278 8.85403C49.6249 9.58478 49.1809 10.2487 48.6213 10.8077L43.4396 15.981ZM4.33393 36.7869C3.30354 37.8269 2.62994 39.1671 2.41018 40.6145C2.19043 42.0619 2.43588 43.5416 3.11115 44.8405L0.830735 47.1251C0.438881 47.5171 0.21875 48.0487 0.21875 48.6029C0.21875 49.1572 0.438881 49.6887 0.830735 50.0807C1.22271 50.4725 1.75426 50.6927 2.30851 50.6927C2.86276 50.6927 3.39432 50.4725 3.78629 50.0807L6.07089 47.8003C7.36695 48.4904 8.85109 48.744 10.3028 48.5233C11.7545 48.3026 13.0962 47.6195 14.1286 46.5754L29.5962 31.1078L19.8098 21.3131L4.33393 36.7869Z" fill="#46BD84"/>
</g>
<defs>
<clipPath id="clip0_18_2185">
<rect width="50.165" height="50.165" fill="white" transform="translate(0.217773 0.528076)"/>
</clipPath>
</defs>
</svg>
