<svg width="51" height="51" viewBox="0 0 51 51" fill="none" xmlns="http://www.w3.org/2000/svg">
<g clip-path="url(#clip0_18_2169)">
<path d="M33.7448 8.57886C32.3741 8.58214 31.0419 9.03314 29.9511 9.86323C28.8603 10.6933 28.0705 11.857 27.702 13.1773L19.2387 43.6275C19.0364 44.3616 18.6006 45.0099 17.9973 45.4744C17.394 45.939 16.6558 46.1946 15.8944 46.2026C15.1497 46.1928 14.4258 45.9554 13.8198 45.5224C13.2138 45.0894 12.7547 44.4814 12.5041 43.7801L6.66614 27.7273C6.28567 26.6335 5.64816 25.647 4.80723 24.8508C3.96629 24.0546 2.9465 23.472 1.83358 23.1518C1.29474 23.0212 0.829837 22.682 0.541136 22.2087C0.252436 21.7353 0.163588 21.1667 0.294139 20.6279C0.424691 20.089 0.763947 19.6241 1.23727 19.3354C1.7106 19.0467 2.27923 18.9579 2.81807 19.0884C4.60337 19.5669 6.24494 20.4738 7.60031 21.7304C8.95568 22.9871 9.9839 24.5555 10.5957 26.2996L15.7669 40.5131L23.6763 12.0528C24.2921 9.85461 25.6088 7.91757 27.4261 6.53602C29.2434 5.15446 31.462 4.40392 33.7448 4.39844H48.2926C48.847 4.39844 49.3787 4.61866 49.7706 5.01065C50.1626 5.40264 50.3829 5.93429 50.3829 6.48865C50.3829 7.043 50.1626 7.57466 49.7706 7.96665C49.3787 8.35864 48.847 8.57886 48.2926 8.57886H33.7448ZM49.5468 25.7186C49.1033 25.386 48.5458 25.2431 47.997 25.3215C47.4483 25.3999 46.9531 25.6931 46.6205 26.1366L42.022 32.2672L37.4236 26.1366C37.0909 25.6931 36.5958 25.3999 36.047 25.3215C35.4982 25.2431 34.9408 25.386 34.4973 25.7186C34.0538 26.0512 33.7606 26.5463 33.6822 27.0951C33.6038 27.6439 33.7466 28.2014 34.0792 28.6449L39.4093 35.7516L34.0792 42.8583C33.7466 43.3018 33.6038 43.8592 33.6822 44.408C33.7606 44.9568 34.0538 45.452 34.4973 45.7846C34.9408 46.1172 35.4982 46.26 36.047 46.1816C36.5958 46.1032 37.0909 45.81 37.4236 45.3665L42.022 39.2359L46.6205 45.3665C46.7852 45.5861 46.9915 45.7711 47.2277 45.911C47.4639 46.0508 47.7253 46.1428 47.997 46.1816C48.2688 46.2204 48.5455 46.2053 48.8114 46.1372C49.0773 46.0691 49.3272 45.9493 49.5468 45.7846C49.7664 45.6199 49.9514 45.4135 50.0912 45.1773C50.2311 44.9412 50.323 44.6797 50.3619 44.408C50.4007 44.1363 50.3856 43.8596 50.3175 43.5937C50.2493 43.3278 50.1295 43.0779 49.9648 42.8583L44.6348 35.7516L49.9648 28.6449C50.1295 28.4253 50.2493 28.1754 50.3175 27.9095C50.3856 27.6436 50.4007 27.3669 50.3619 27.0951C50.323 26.8234 50.2311 26.562 50.0912 26.3258C49.9514 26.0896 49.7664 25.8833 49.5468 25.7186Z" fill="#86242E"/>
</g>
<defs>
<clipPath id="clip0_18_2169">
<rect width="50.165" height="50.165" fill="white" transform="translate(0.217773 0.217773)"/>
</clipPath>
</defs>
</svg>
