<svg width="108" height="108" viewBox="0 0 108 108" fill="none" xmlns="http://www.w3.org/2000/svg">
<rect opacity="0.15" x="0.983398" y="0.620361" width="106.601" height="106.601" rx="39.1914" fill="#64748B"/>
<path d="M50.4223 40.4508C50.5288 40.6675 50.5991 40.8995 50.6306 41.1381L51.2126 49.7914L51.5014 54.1407C51.5044 54.588 51.5746 55.0324 51.7097 55.4595C52.0586 56.2884 52.898 56.8151 53.8112 56.7784L67.7263 55.8682C68.3288 55.8583 68.9107 56.0836 69.3439 56.4947C69.7049 56.8373 69.9379 57.2854 70.0114 57.7674L70.036 58.0601C69.4602 66.0336 63.604 72.6842 55.647 74.4009C47.69 76.1177 39.5305 72.4911 35.5985 65.4902C34.4649 63.4562 33.7569 61.2206 33.5159 58.9145C33.4153 58.2319 33.3709 57.5424 33.3834 56.8527C33.371 48.3041 39.4586 40.9136 47.9801 39.1319C49.0057 38.9722 50.0111 39.5152 50.4223 40.4508Z" fill="#64748B"/>
<path opacity="0.4" d="M56.1024 33.0205C65.6335 33.263 73.6441 40.1167 75.186 49.3481L75.1712 49.4162L75.1292 49.5153L75.135 49.7872C75.1132 50.1475 74.9741 50.4941 74.7344 50.774C74.4847 51.0657 74.1436 51.2643 73.768 51.3414L73.5389 51.3728L57.4844 52.413C56.9504 52.4657 56.4187 52.2935 56.0216 51.9393C55.6906 51.6441 55.4791 51.2456 55.4193 50.8163L54.3417 34.7852C54.3229 34.7309 54.3229 34.6722 54.3417 34.618C54.3564 34.1761 54.5509 33.7584 54.8818 33.4582C55.2126 33.158 55.6522 33.0004 56.1024 33.0205Z" fill="#64748B"/>
</svg>
