<svg width="107" height="107" viewBox="0 0 107 107" fill="none" xmlns="http://www.w3.org/2000/svg">
<rect opacity="0.15" x="0.399414" y="0.310303" width="106.601" height="106.601" rx="39.1914" fill="#F59E0B"/>
<g clip-path="url(#clip0_18_2196)">
<path d="M78.2599 74.5127H36.4557C35.9013 74.5127 35.3697 74.2925 34.9777 73.9005C34.5857 73.5085 34.3655 72.9768 34.3655 72.4225V30.6183C34.3655 30.0639 34.1453 29.5323 33.7533 29.1403C33.3613 28.7483 32.8296 28.5281 32.2753 28.5281C31.7209 28.5281 31.1893 28.7483 30.7973 29.1403C30.4053 29.5323 30.1851 30.0639 30.1851 30.6183V72.4225C30.1851 74.0855 30.8457 75.6805 32.0217 76.8565C33.1977 78.0324 34.7926 78.6931 36.4557 78.6931H78.2599C78.8142 78.6931 79.3459 78.4729 79.7379 78.0809C80.1299 77.6889 80.3501 77.1572 80.3501 76.6029C80.3501 76.0485 80.1299 75.5169 79.7379 75.1249C79.3459 74.7329 78.8142 74.5127 78.2599 74.5127Z" fill="#F59E0B"/>
<path d="M61.5375 70.3324C62.0918 70.3324 62.6235 70.1122 63.0155 69.7202C63.4075 69.3282 63.6277 68.7965 63.6277 68.2422V53.6107C63.6277 53.0564 63.4075 52.5247 63.0155 52.1327C62.6235 51.7407 62.0918 51.5205 61.5375 51.5205C60.9831 51.5205 60.4515 51.7407 60.0595 52.1327C59.6675 52.5247 59.4473 53.0564 59.4473 53.6107V68.2422C59.4473 68.7965 59.6675 69.3282 60.0595 69.7202C60.4515 70.1122 60.9831 70.3324 61.5375 70.3324Z" fill="#F59E0B"/>
<path d="M44.8163 70.3324C45.3706 70.3324 45.9023 70.1122 46.2943 69.7202C46.6863 69.3282 46.9065 68.7965 46.9065 68.2422V53.6107C46.9065 53.0564 46.6863 52.5247 46.2943 52.1327C45.9023 51.7407 45.3706 51.5205 44.8163 51.5205C44.2619 51.5205 43.7303 51.7407 43.3383 52.1327C42.9463 52.5247 42.7261 53.0564 42.7261 53.6107V68.2422C42.7261 68.7965 42.9463 69.3282 43.3383 69.7202C43.7303 70.1122 44.2619 70.3324 44.8163 70.3324Z" fill="#F59E0B"/>
<path d="M69.8988 70.3323C70.4532 70.3323 70.9848 70.112 71.3768 69.7201C71.7688 69.3281 71.989 68.7964 71.989 68.2421V43.1595C71.989 42.6052 71.7688 42.0735 71.3768 41.6815C70.9848 41.2896 70.4532 41.0693 69.8988 41.0693C69.3444 41.0693 68.8128 41.2896 68.4208 41.6815C68.0288 42.0735 67.8086 42.6052 67.8086 43.1595V68.2421C67.8086 68.7964 68.0288 69.3281 68.4208 69.7201C68.8128 70.112 69.3444 70.3323 69.8988 70.3323Z" fill="#F59E0B"/>
<path d="M53.1776 70.3323C53.732 70.3323 54.2636 70.112 54.6556 69.7201C55.0476 69.3281 55.2678 68.7964 55.2678 68.2421V43.1595C55.2678 42.6052 55.0476 42.0735 54.6556 41.6815C54.2636 41.2896 53.732 41.0693 53.1776 41.0693C52.6233 41.0693 52.0916 41.2896 51.6996 41.6815C51.3076 42.0735 51.0874 42.6052 51.0874 43.1595V68.2421C51.0874 68.7964 51.3076 69.3281 51.6996 69.7201C52.0916 70.112 52.6233 70.3323 53.1776 70.3323Z" fill="#F59E0B"/>
</g>
<defs>
<clipPath id="clip0_18_2196">
<rect width="50.165" height="50.165" fill="white" transform="translate(30.1851 28.5281)"/>
</clipPath>
</defs>
</svg>
