<svg width="599" height="446" viewBox="0 0 599 446" fill="none" xmlns="http://www.w3.org/2000/svg">
<path d="M598.561 391.938H0V392.237H598.561V391.938Z" fill="#EBEBEB"/>
<path d="M283.718 338.546H52.5658C50.755 338.543 49.0194 337.822 47.74 336.54C46.4607 335.258 45.7422 333.522 45.7422 331.711V6.77571C45.758 4.97527 46.4834 3.25375 47.7611 1.98509C49.0387 0.716428 50.7653 0.00308425 52.5658 0H283.718C285.531 0 287.27 0.720174 288.552 2.00209C289.834 3.28401 290.554 5.02266 290.554 6.83557V331.711C290.554 333.524 289.834 335.262 288.552 336.544C287.27 337.826 285.531 338.546 283.718 338.546ZM52.5658 0.239425C50.8343 0.242597 49.1749 0.932636 47.9517 2.15808C46.7285 3.38353 46.0415 5.04425 46.0415 6.77571V331.711C46.0415 333.442 46.7285 335.103 47.9517 336.328C49.1749 337.554 50.8343 338.244 52.5658 338.247H283.718C285.451 338.244 287.111 337.554 288.337 336.329C289.562 335.104 290.251 333.443 290.255 331.711V6.77571C290.251 5.04315 289.562 3.38246 288.337 2.15735C287.111 0.932248 285.451 0.24259 283.718 0.239425H52.5658Z" fill="#EBEBEB"/>
<path d="M542.668 338.546H311.504C309.692 338.543 307.955 337.822 306.674 336.541C305.392 335.259 304.671 333.523 304.668 331.711V6.77571C304.687 4.97418 305.415 3.25267 306.695 1.98434C307.974 0.716009 309.702 0.00305062 311.504 0H542.668C544.466 0.00623042 546.19 0.720966 547.465 1.98929C548.74 3.25762 549.464 4.97734 549.48 6.77571V331.711C549.48 333.519 548.763 335.254 547.486 336.536C546.209 337.817 544.477 338.54 542.668 338.546ZM311.504 0.239425C309.771 0.24259 308.11 0.932248 306.885 2.15735C305.66 3.38246 304.97 5.04315 304.967 6.77571V331.711C304.97 333.443 305.66 335.104 306.885 336.329C308.11 337.554 309.771 338.244 311.504 338.247H542.668C544.4 338.244 546.061 337.554 547.286 336.329C548.511 335.104 549.201 333.443 549.204 331.711V6.77571C549.201 5.04315 548.511 3.38246 547.286 2.15735C546.061 0.932248 544.4 0.24259 542.668 0.239425H311.504Z" fill="#EBEBEB"/>
<path d="M92.5139 403.335H61.3887V403.634H92.5139V403.335Z" fill="#EBEBEB"/>
<path d="M227.669 400.09H173.763V400.39H227.669V400.09Z" fill="#EBEBEB"/>
<path d="M166.484 414.456H93.7109V414.755H166.484V414.456Z" fill="#EBEBEB"/>
<path d="M537.173 412.445H514.152V412.744H537.173V412.445Z" fill="#EBEBEB"/>
<path d="M503.486 412.445H437.297V412.744H503.486V412.445Z" fill="#EBEBEB"/>
<path d="M396.869 407.381H307.72V407.68H396.869V407.381Z" fill="#EBEBEB"/>
<path d="M317.082 262.78H266.743V391.938H317.082V262.78Z" fill="#F0F0F0"/>
<path d="M86.6241 391.938H266.743V262.78H86.6241L86.6241 391.938Z" fill="#F5F5F5"/>
<path d="M97.6619 379.356H127.722V353.055H97.6619V379.356Z" fill="white"/>
<path d="M97.6619 343.395H127.722V317.094H97.6619V343.395Z" fill="#EBEBEB"/>
<g style="mix-blend-mode:multiply" opacity="0.7">
<path d="M317.07 279.444H86.085V284.628H317.07V279.444Z" fill="#E6E6E6"/>
</g>
<path d="M319.859 260.266H266.743V281.18H319.859V260.266Z" fill="#F0F0F0"/>
<path d="M83.8221 281.192H266.73V260.278H83.8221V281.192Z" fill="#F5F5F5"/>
<path d="M298 220.785H258.878V260.59H298V220.785Z" fill="#F0F0F0"/>
<path d="M122.646 260.59H258.866V220.785H122.646V260.59Z" fill="#F5F5F5"/>
<g style="mix-blend-mode:multiply" opacity="0.7">
<path d="M298 226.795H122.25V230.015H298V226.795Z" fill="#E6E6E6"/>
</g>
<path d="M300.155 218.846H258.878V228.148H300.155V218.846Z" fill="#F0F0F0"/>
<path d="M120.503 228.148L258.878 228.148V218.846L120.503 218.846V228.148Z" fill="#F5F5F5"/>
<path d="M344.065 391.938H382.361V198.148H344.065V391.938Z" fill="#E6E6E6"/>
<path d="M352.266 391.938H344.065V378.195H360.861L352.266 391.938Z" fill="#F0F0F0"/>
<path d="M471.822 391.938H510.118V198.148H471.822V391.938Z" fill="#E6E6E6"/>
<path d="M344.065 389.161H478.969V198.148L344.065 198.148V389.161Z" fill="#F0F0F0"/>
<path d="M350.434 258.997H472.612V206.611H350.434V258.997Z" fill="#E6E6E6"/>
<path d="M419.544 231.691C419.544 233.28 419.073 234.833 418.19 236.154C417.307 237.475 416.053 238.504 414.585 239.112C413.117 239.72 411.502 239.879 409.944 239.569C408.386 239.259 406.955 238.494 405.831 237.371C404.708 236.248 403.943 234.816 403.633 233.258C403.323 231.7 403.482 230.085 404.09 228.617C404.698 227.149 405.728 225.895 407.048 225.012C408.369 224.129 409.922 223.658 411.511 223.658C412.567 223.657 413.612 223.863 414.587 224.267C415.562 224.67 416.448 225.261 417.195 226.008C417.941 226.754 418.533 227.64 418.936 228.615C419.339 229.59 419.545 230.636 419.544 231.691Z" fill="#FAFAFA"/>
<path d="M470.769 391.938H478.969V378.195H462.174L470.769 391.938Z" fill="#F0F0F0"/>
<path d="M472.6 267.461H350.422V380.697H472.6V267.461Z" fill="#E6E6E6"/>
<path d="M455.733 292.373C460.169 292.373 463.766 288.777 463.766 284.341C463.766 279.904 460.169 276.308 455.733 276.308C451.297 276.308 447.7 279.904 447.7 284.341C447.7 288.777 451.297 292.373 455.733 292.373Z" fill="#FAFAFA"/>
<path d="M497.105 176.576V19.7765L103.204 19.7765V176.576L497.105 176.576Z" fill="#E6E6E6"/>
<path d="M495.369 176.576V19.7765L101.468 19.7765V176.576L495.369 176.576Z" fill="#F0F0F0"/>
<path d="M485.35 29.8084H111.488V166.556H485.35V29.8084Z" fill="white"/>
<path d="M155.075 86.7914L141.931 109.573H168.231L155.075 86.7914Z" fill="#E6E6E6"/>
<path d="M223.324 87.4378H201.848V108.914H223.324V87.4378Z" fill="#E6E6E6"/>
<path d="M270.095 84.4331L255.646 94.9319L261.164 111.919H279.013L284.532 94.9319L270.095 84.4331Z" fill="#E6E6E6"/>
<path d="M335.195 85.0197H320.003L312.401 98.176L320.003 111.332H335.195L342.784 98.176L335.195 85.0197Z" fill="#E6E6E6"/>
<path d="M385.102 83.7388L373.227 89.461L370.294 102.306L378.506 112.613H391.687L399.911 102.306L396.978 89.461L385.102 83.7388Z" fill="#E6E6E6"/>
<path d="M448.419 84.1458H436.795L428.57 92.358V103.994L436.795 112.206H448.419L456.631 103.994V92.358L448.419 84.1458Z" fill="#E6E6E6"/>
<path d="M299.281 446C427.472 446 531.391 439.933 531.391 432.449C531.391 424.964 427.472 418.897 299.281 418.897C171.09 418.897 67.1709 424.964 67.1709 432.449C67.1709 439.933 171.09 446 299.281 446Z" fill="#F5F5F5"/>
<path d="M286.604 89.1976H483.71C484.696 89.1849 485.674 89.3774 486.581 89.7628C487.489 90.1482 488.306 90.7182 488.982 91.4364C489.657 92.1546 490.176 93.0055 490.505 93.9349C490.834 94.8643 490.966 95.852 490.893 96.8353L474.815 355.809C474.66 357.866 473.742 359.792 472.24 361.207C470.739 362.622 468.762 363.425 466.699 363.458H269.581C268.597 363.46 267.623 363.26 266.72 362.871C265.816 362.481 265.003 361.91 264.329 361.192C263.656 360.475 263.137 359.627 262.805 358.701C262.472 357.775 262.334 356.791 262.398 355.809L278.463 96.8353C278.624 94.7767 279.548 92.8524 281.054 91.4395C282.56 90.0267 284.539 89.2271 286.604 89.1976Z" fill="#407BFF"/>
<path opacity="0.4" d="M286.604 89.1976H483.71C484.696 89.1849 485.674 89.3774 486.581 89.7628C487.489 90.1482 488.306 90.7182 488.982 91.4364C489.657 92.1546 490.176 93.0055 490.505 93.9349C490.834 94.8643 490.966 95.852 490.893 96.8353L474.815 355.809C474.66 357.866 473.742 359.792 472.24 361.207C470.739 362.622 468.762 363.425 466.699 363.458H269.581C268.597 363.46 267.623 363.26 266.72 362.871C265.816 362.481 265.003 361.91 264.329 361.192C263.656 360.475 263.137 359.627 262.805 358.701C262.472 357.775 262.334 356.791 262.398 355.809L278.463 96.8353C278.624 94.7767 279.548 92.8524 281.054 91.4395C282.56 90.0267 284.539 89.2271 286.604 89.1976Z" fill="black"/>
<path d="M282.078 89.1976H479.185C480.171 89.1849 481.148 89.3774 482.056 89.7628C482.963 90.1482 483.781 90.7182 484.456 91.4364C485.132 92.1546 485.65 93.0055 485.979 93.9349C486.308 94.8643 486.441 95.852 486.367 96.8353L470.29 355.809C470.135 357.868 469.215 359.796 467.71 361.211C466.206 362.627 464.227 363.428 462.162 363.458H265.055C264.071 363.46 263.098 363.26 262.194 362.871C261.291 362.481 260.477 361.91 259.804 361.192C259.13 360.475 258.612 359.627 258.279 358.701C257.947 357.775 257.809 356.791 257.873 355.809L273.938 96.8353C274.096 94.7757 275.019 92.8498 276.526 91.4364C278.032 90.023 280.013 89.2244 282.078 89.1976Z" fill="#407BFF"/>
<path opacity="0.4" d="M268.562 349.476L460.425 351.775L475.988 100.953H283.981L268.562 349.476Z" fill="black"/>
<path d="M262.96 346.938H457.301C468.003 248.882 471.295 195.945 472.756 97.9366H278.415C276.954 195.945 273.674 248.882 262.96 346.938Z" fill="white"/>
<path opacity="0.3" d="M449.508 166.101H416.048C415.711 166.105 415.377 166.038 415.067 165.904C414.758 165.769 414.48 165.572 414.252 165.323C414.022 165.077 413.843 164.787 413.728 164.47C413.613 164.153 413.563 163.816 413.582 163.479L415.653 130.031C415.693 129.404 415.969 128.814 416.427 128.383C416.885 127.952 417.49 127.711 418.119 127.709H451.639C451.975 127.71 452.309 127.78 452.618 127.914C452.927 128.048 453.205 128.244 453.436 128.489C453.667 128.735 453.845 129.024 453.96 129.341C454.075 129.658 454.124 129.994 454.105 130.331L452.022 163.79C452.011 164.108 451.937 164.42 451.804 164.709C451.672 164.998 451.483 165.257 451.249 165.472C451.015 165.687 450.74 165.854 450.441 165.962C450.143 166.07 449.825 166.117 449.508 166.101ZM418.682 161.169H447.185L448.921 132.653H420.442L418.682 161.169Z" fill="#407BFF"/>
<path opacity="0.3" d="M446.335 217.062H412.888C412.551 217.061 412.219 216.992 411.91 216.858C411.601 216.724 411.323 216.529 411.092 216.284C410.86 216.04 410.68 215.75 410.565 215.432C410.449 215.115 410.401 214.777 410.422 214.441L412.493 180.981C412.532 180.354 412.81 179.766 413.268 179.337C413.726 178.908 414.331 178.669 414.959 178.671H448.418C448.756 178.666 449.09 178.734 449.399 178.868C449.709 179.002 449.986 179.2 450.214 179.449C450.445 179.695 450.623 179.985 450.739 180.302C450.854 180.619 450.903 180.956 450.885 181.292L448.802 214.74C448.765 215.369 448.489 215.96 448.03 216.392C447.572 216.823 446.965 217.063 446.335 217.062ZM415.51 212.118H444.013L445.785 183.603H417.281L415.51 212.118Z" fill="#407BFF"/>
<path opacity="0.3" d="M443.176 268.012H409.728C409.39 268.013 409.054 267.945 408.743 267.811C408.432 267.677 408.152 267.481 407.921 267.234C407.687 266.99 407.508 266.7 407.394 266.382C407.281 266.065 407.236 265.726 407.262 265.39L409.333 231.943C409.373 231.315 409.649 230.725 410.107 230.294C410.565 229.863 411.17 229.622 411.799 229.62H445.259C445.595 229.621 445.928 229.691 446.237 229.824C446.545 229.958 446.824 230.153 447.055 230.398C447.284 230.645 447.461 230.936 447.576 231.252C447.691 231.569 447.742 231.905 447.725 232.242L445.642 265.761C445.588 266.377 445.304 266.95 444.848 267.367C444.391 267.784 443.794 268.014 443.176 268.012ZM412.35 263.08H440.853L442.625 234.564H414.122L412.35 263.08Z" fill="#407BFF"/>
<path opacity="0.3" d="M440.015 318.973H406.567C406.229 318.972 405.895 318.902 405.584 318.768C405.273 318.635 404.993 318.44 404.759 318.195C404.526 317.952 404.347 317.661 404.233 317.344C404.12 317.026 404.075 316.688 404.101 316.352L406.172 282.892C406.215 282.266 406.493 281.68 406.95 281.251C407.408 280.822 408.011 280.583 408.638 280.582H442.098C442.435 280.578 442.769 280.645 443.079 280.779C443.388 280.913 443.666 281.111 443.893 281.36C444.124 281.606 444.303 281.896 444.418 282.213C444.533 282.53 444.583 282.867 444.564 283.203L442.481 316.651C442.441 317.279 442.165 317.868 441.707 318.299C441.249 318.731 440.644 318.972 440.015 318.973ZM409.189 314.029H437.692L439.464 285.514H410.961L409.189 314.029Z" fill="#407BFF"/>
<path opacity="0.3" d="M311.109 142.529H386.875C388.003 142.512 389.083 142.074 389.905 141.301C390.726 140.528 391.23 139.476 391.316 138.351C391.356 137.814 391.284 137.274 391.104 136.766C390.924 136.257 390.64 135.792 390.271 135.399C389.902 135.007 389.455 134.695 388.959 134.484C388.463 134.273 387.929 134.167 387.389 134.173H311.636C310.506 134.186 309.422 134.622 308.6 135.396C307.777 136.17 307.275 137.225 307.194 138.351C307.154 138.888 307.226 139.427 307.406 139.934C307.585 140.442 307.867 140.906 308.235 141.299C308.603 141.692 309.048 142.004 309.543 142.216C310.038 142.427 310.571 142.534 311.109 142.529Z" fill="#407BFF"/>
<path opacity="0.3" d="M324.421 159.648H385.773C386.901 159.631 387.982 159.193 388.803 158.42C389.625 157.647 390.128 156.595 390.215 155.47C390.256 154.933 390.185 154.392 390.007 153.884C389.829 153.375 389.547 152.909 389.178 152.515C388.81 152.121 388.364 151.808 387.869 151.595C387.373 151.383 386.839 151.275 386.3 151.28H324.971C323.842 151.298 322.76 151.738 321.938 152.513C321.116 153.289 320.614 154.344 320.53 155.47C320.491 156.005 320.562 156.542 320.74 157.048C320.917 157.553 321.198 158.017 321.563 158.409C321.928 158.801 322.371 159.114 322.862 159.327C323.354 159.54 323.885 159.65 324.421 159.648Z" fill="#407BFF"/>
<path opacity="0.3" d="M307.41 202.242H383.176C383.714 202.237 384.247 202.344 384.742 202.556C385.236 202.768 385.682 203.08 386.05 203.472C386.417 203.865 386.7 204.33 386.879 204.837C387.058 205.344 387.13 205.883 387.09 206.42C387.004 207.545 386.501 208.596 385.679 209.369C384.858 210.142 383.777 210.58 382.649 210.598H306.883C306.345 210.603 305.812 210.496 305.317 210.284C304.823 210.072 304.377 209.76 304.01 209.368C303.642 208.975 303.359 208.51 303.18 208.003C303.001 207.496 302.929 206.957 302.969 206.42C303.055 205.295 303.558 204.243 304.38 203.471C305.202 202.698 306.282 202.26 307.41 202.242Z" fill="#407BFF"/>
<path opacity="0.3" d="M322.876 185.123H384.276C384.815 185.117 385.35 185.222 385.846 185.433C386.342 185.644 386.789 185.956 387.158 186.349C387.527 186.742 387.811 187.207 387.99 187.715C388.17 188.223 388.243 188.763 388.203 189.301C388.119 190.428 387.617 191.483 386.795 192.258C385.973 193.033 384.891 193.473 383.761 193.491H322.361C321.821 193.498 321.285 193.392 320.788 193.18C320.291 192.968 319.844 192.655 319.475 192.261C319.105 191.867 318.822 191.4 318.643 190.891C318.464 190.381 318.393 189.84 318.434 189.301C318.521 188.176 319.024 187.125 319.846 186.352C320.667 185.579 321.748 185.141 322.876 185.123Z" fill="#407BFF"/>
<path opacity="0.3" d="M304.788 244.44H380.554C381.681 244.423 382.762 243.985 383.584 243.212C384.405 242.439 384.908 241.387 384.995 240.262C385.035 239.725 384.962 239.185 384.783 238.677C384.603 238.168 384.319 237.703 383.95 237.31C383.581 236.918 383.134 236.606 382.638 236.395C382.142 236.184 381.607 236.078 381.068 236.085H305.266C304.139 236.102 303.058 236.54 302.236 237.313C301.415 238.086 300.912 239.138 300.825 240.262C300.785 240.803 300.858 241.346 301.04 241.857C301.222 242.368 301.509 242.835 301.882 243.228C302.255 243.621 302.706 243.932 303.207 244.141C303.707 244.35 304.246 244.452 304.788 244.44Z" fill="#407BFF"/>
<path opacity="0.3" d="M349.01 261.559H379.488C380.616 261.542 381.697 261.104 382.518 260.331C383.34 259.558 383.843 258.506 383.93 257.381C383.969 256.843 383.897 256.303 383.717 255.794C383.538 255.285 383.254 254.819 382.885 254.425C382.516 254.032 382.07 253.719 381.574 253.506C381.077 253.294 380.543 253.187 380.003 253.191H349.56C348.431 253.212 347.351 253.653 346.529 254.428C345.708 255.202 345.205 256.256 345.119 257.381C345.079 257.916 345.151 258.453 345.328 258.959C345.506 259.464 345.786 259.928 346.152 260.32C346.517 260.712 346.96 261.025 347.451 261.238C347.943 261.451 348.474 261.561 349.01 261.559Z" fill="#407BFF"/>
<path opacity="0.3" d="M318.135 261.559H334.213C335.341 261.542 336.421 261.104 337.243 260.331C338.064 259.558 338.568 258.506 338.654 257.381C338.694 256.843 338.622 256.303 338.442 255.794C338.262 255.285 337.979 254.819 337.61 254.425C337.241 254.032 336.794 253.719 336.298 253.506C335.802 253.294 335.267 253.187 334.728 253.191H318.65C317.521 253.212 316.441 253.653 315.619 254.428C314.798 255.202 314.295 256.256 314.209 257.381C314.169 257.919 314.241 258.459 314.421 258.967C314.601 259.475 314.885 259.941 315.254 260.333C315.623 260.726 316.07 261.038 316.566 261.249C317.062 261.46 317.596 261.566 318.135 261.559Z" fill="#407BFF"/>
<path opacity="0.3" d="M301.675 295.402H377.441C378.568 295.384 379.649 294.946 380.471 294.173C381.292 293.401 381.795 292.349 381.882 291.224C381.922 290.686 381.849 290.145 381.67 289.637C381.49 289.128 381.206 288.662 380.837 288.268C380.468 287.874 380.022 287.561 379.526 287.349C379.03 287.137 378.495 287.029 377.955 287.034H302.141C301.012 287.052 299.93 287.492 299.108 288.267C298.286 289.042 297.784 290.097 297.7 291.224C297.66 291.766 297.733 292.31 297.916 292.821C298.099 293.333 298.387 293.801 298.761 294.194C299.136 294.588 299.588 294.898 300.09 295.106C300.592 295.315 301.132 295.415 301.675 295.402Z" fill="#407BFF"/>
<path opacity="0.3" d="M314.975 312.521H376.328C377.457 312.5 378.537 312.06 379.359 311.285C380.18 310.51 380.683 309.457 380.769 308.331C380.809 307.793 380.737 307.253 380.557 306.745C380.377 306.237 380.093 305.772 379.724 305.379C379.355 304.986 378.908 304.674 378.412 304.463C377.916 304.252 377.382 304.147 376.843 304.153H315.49C314.362 304.171 313.282 304.609 312.46 305.382C311.638 306.154 311.135 307.206 311.049 308.331C311.009 308.869 311.081 309.41 311.261 309.918C311.441 310.427 311.724 310.893 312.093 311.287C312.462 311.681 312.909 311.994 313.405 312.206C313.901 312.418 314.436 312.526 314.975 312.521Z" fill="#407BFF"/>
<path d="M431.096 156.943C430.6 156.947 430.114 156.796 429.707 156.512L416.814 147.713C416.322 147.324 415.996 146.762 415.901 146.142C415.807 145.522 415.951 144.889 416.305 144.371C416.659 143.853 417.196 143.488 417.809 143.351C418.421 143.214 419.062 143.314 419.604 143.631L430.617 151.161C434.64 146.312 446.108 133.204 455.649 128.906C455.945 128.774 456.265 128.702 456.589 128.693C456.914 128.684 457.236 128.74 457.539 128.856C457.842 128.972 458.119 129.147 458.355 129.37C458.59 129.593 458.779 129.861 458.911 130.157C459.043 130.453 459.116 130.773 459.124 131.097C459.133 131.422 459.078 131.744 458.961 132.047C458.845 132.35 458.671 132.627 458.447 132.863C458.224 133.098 457.957 133.287 457.66 133.419C447.245 138.052 433.179 155.829 433.047 156.009C432.813 156.301 432.516 156.537 432.178 156.699C431.841 156.86 431.471 156.944 431.096 156.943Z" fill="#407BFF"/>
<path d="M425.099 206.911C424.458 206.912 423.841 206.668 423.375 206.228L412.158 195.454C411.682 194.999 411.406 194.372 411.391 193.714C411.377 193.055 411.624 192.417 412.08 191.941C412.536 191.464 413.162 191.189 413.821 191.174C414.48 191.159 415.117 191.407 415.594 191.863L425.171 201.069C429.899 196.843 443.127 185.59 453.135 182.86C453.45 182.775 453.778 182.752 454.101 182.793C454.425 182.834 454.737 182.939 455.019 183.1C455.302 183.262 455.551 183.478 455.75 183.736C455.95 183.993 456.096 184.288 456.182 184.602C456.268 184.917 456.291 185.245 456.249 185.568C456.208 185.891 456.104 186.203 455.942 186.486C455.78 186.769 455.564 187.018 455.307 187.217C455.049 187.417 454.755 187.563 454.44 187.649C443.522 190.63 426.99 206.121 426.823 206.276C426.591 206.49 426.32 206.656 426.024 206.765C425.728 206.874 425.414 206.924 425.099 206.911Z" fill="#407BFF"/>
<path opacity="0.4" d="M404.113 103.826H407.704C408.667 103.836 409.621 103.656 410.514 103.296C411.406 102.937 412.219 102.405 412.906 101.731C413.593 101.058 414.141 100.255 414.518 99.3701C414.894 98.4848 415.093 97.534 415.103 96.5718V89.8919C415.103 89.795 415.083 89.6991 415.046 89.6097C415.009 89.5203 414.954 89.4392 414.885 89.3713C414.815 89.3033 414.734 89.2498 414.644 89.2138C414.554 89.1778 414.457 89.1601 414.36 89.1617H404.209C403.991 89.1648 403.782 89.2528 403.628 89.407C403.474 89.5613 403.386 89.7696 403.383 89.9877L403.431 103.096C403.43 103.282 403.501 103.461 403.627 103.596C403.754 103.732 403.928 103.814 404.113 103.826Z" fill="black"/>
<path d="M349.021 77.0827H410.146C411.02 77.0578 411.887 77.227 412.687 77.5782C413.487 77.9293 414.199 78.4537 414.772 79.1133C415.344 79.773 415.763 80.5516 415.999 81.3929C416.234 82.2341 416.279 83.1171 416.132 83.9782L414.3 97.5894C414.003 99.4708 413.058 101.189 411.629 102.448C410.199 103.707 408.375 104.427 406.471 104.485H345.322C344.449 104.51 343.581 104.341 342.781 103.989C341.981 103.638 341.27 103.114 340.697 102.454C340.124 101.795 339.705 101.016 339.47 100.175C339.235 99.3335 339.189 98.4505 339.337 97.5894L341.18 83.9782C341.478 82.0949 342.425 80.3749 343.857 79.1157C345.289 77.8566 347.115 77.1375 349.021 77.0827Z" fill="#407BFF"/>
<path opacity="0.6" d="M349.021 77.0827H410.146C411.02 77.0578 411.887 77.227 412.687 77.5782C413.487 77.9293 414.199 78.4537 414.772 79.1133C415.344 79.773 415.763 80.5516 415.999 81.3929C416.234 82.2341 416.279 83.1171 416.132 83.9782L414.3 97.5894C414.003 99.4708 413.058 101.189 411.629 102.448C410.199 103.707 408.375 104.427 406.471 104.485H345.322C344.449 104.51 343.581 104.341 342.781 103.989C341.981 103.638 341.27 103.114 340.697 102.454C340.124 101.795 339.705 101.016 339.47 100.175C339.235 99.3335 339.189 98.4505 339.337 97.5894L341.18 83.9782C341.478 82.0949 342.425 80.3749 343.857 79.1157C345.289 77.8566 347.115 77.1375 349.021 77.0827Z" fill="white"/>
<path opacity="0.5" d="M408.567 83.6669H381.033C380.777 83.6875 380.521 83.655 380.278 83.5713C380.036 83.4877 379.814 83.3548 379.626 83.1811C379.437 83.0073 379.287 82.7965 379.184 82.5618C379.081 82.3271 379.028 82.0736 379.028 81.8174C379.028 81.5612 379.081 81.3077 379.184 81.073C379.287 80.8383 379.437 80.6274 379.626 80.4537C379.814 80.2799 380.036 80.1471 380.278 80.0634C380.521 79.9798 380.777 79.9473 381.033 79.9678H408.567C409.031 80.0053 409.465 80.2163 409.781 80.5591C410.098 80.9018 410.273 81.3511 410.273 81.8174C410.273 82.2837 410.098 82.733 409.781 83.0757C409.465 83.4184 409.031 83.6295 408.567 83.6669Z" fill="white"/>
<path opacity="0.5" d="M371.875 83.6669H368.978C368.723 83.6875 368.466 83.655 368.224 83.5713C367.981 83.4877 367.759 83.3548 367.571 83.1811C367.383 83.0073 367.232 82.7965 367.129 82.5618C367.027 82.3271 366.974 82.0736 366.974 81.8174C366.974 81.5612 367.027 81.3077 367.129 81.073C367.232 80.8383 367.383 80.6274 367.571 80.4537C367.759 80.2799 367.981 80.1471 368.224 80.0634C368.466 79.9798 368.723 79.9473 368.978 79.9678H371.875C372.131 79.9473 372.387 79.9798 372.63 80.0634C372.872 80.1471 373.094 80.2799 373.282 80.4537C373.471 80.6274 373.621 80.8383 373.724 81.073C373.827 81.3077 373.88 81.5612 373.88 81.8174C373.88 82.0736 373.827 82.3271 373.724 82.5618C373.621 82.7965 373.471 83.0073 373.282 83.1811C373.094 83.3548 372.872 83.4877 372.63 83.5713C372.387 83.655 372.131 83.6875 371.875 83.6669Z" fill="white"/>
<path d="M202.865 349.141L214.681 351.391L242.61 220.043L225.263 216.739L202.865 349.141Z" fill="#407BFF"/>
<path d="M244.394 128.846L258.544 124.201L259.525 119.066L246.345 118.659L244.394 128.846Z" fill="#263238"/>
<path d="M244.034 125.865L260.148 120.622L243.591 214.907L226.245 211.603L244.034 125.865Z" fill="#407BFF"/>
<path d="M227.239 216.892L243.136 219.974L244.13 214.847L228.233 211.765L227.239 216.892Z" fill="#263238"/>
<path d="M204.995 364.691C204.84 365.47 205.163 366.188 205.713 366.296C206.264 366.403 206.839 365.853 206.982 365.098C207.126 364.344 206.803 363.602 206.252 363.494C205.701 363.387 205.139 363.925 204.995 364.691Z" fill="#407BFF"/>
<path d="M204.182 364.787L207.702 365.458L214.681 351.391L202.865 349.141L204.182 364.787Z" fill="#263238"/>
<path d="M225.467 187.733C225.217 187.731 224.971 187.667 224.752 187.547C224.533 187.426 224.348 187.252 224.214 187.042C224.079 186.831 224 186.59 223.982 186.34C223.965 186.091 224.01 185.841 224.114 185.614C231.536 169.704 237.558 136.472 238.372 128.571C238.488 127.425 238.909 126.331 239.591 125.402C240.273 124.474 241.192 123.745 242.251 123.292L246.165 121.604C246.344 121.525 246.537 121.483 246.733 121.479C246.929 121.474 247.123 121.509 247.305 121.58C247.488 121.651 247.654 121.758 247.795 121.893C247.937 122.029 248.05 122.191 248.128 122.37C248.207 122.549 248.25 122.742 248.254 122.938C248.258 123.133 248.223 123.328 248.152 123.51C248.081 123.692 247.974 123.859 247.839 124C247.703 124.141 247.542 124.255 247.362 124.333L243.448 126.021C242.876 126.269 242.38 126.665 242.012 127.167C241.644 127.67 241.416 128.262 241.353 128.882C240.503 137.178 234.529 170.398 226.844 186.871C226.721 187.132 226.527 187.352 226.282 187.505C226.038 187.658 225.755 187.737 225.467 187.733Z" fill="#263238"/>
<path d="M170.316 124.249C167.335 129.361 164.33 134.784 161.493 140.099C160.092 142.781 158.727 145.462 157.422 148.156C156.118 150.849 154.897 153.567 153.831 156.272L153.628 156.763C153.585 156.841 153.556 156.926 153.544 157.015C153.476 157.41 153.448 157.811 153.46 158.212C153.512 159.399 153.68 160.577 153.963 161.731C154.648 164.488 155.528 167.192 156.596 169.824C157.662 172.577 158.883 175.343 160.188 178.12C161.493 180.897 162.822 183.675 164.126 186.38L158.44 190.259C154.196 185.328 150.425 180.009 147.175 174.373C145.448 171.411 143.986 168.302 142.806 165.083C142.15 163.249 141.669 161.357 141.369 159.433C141.208 158.271 141.16 157.096 141.225 155.925C141.274 155.233 141.37 154.545 141.513 153.866C141.585 153.519 141.704 153.124 141.812 152.753L142.004 152.142C143.945 145.904 146.346 139.818 149.186 133.934C151.97 128.099 155.084 122.428 158.512 116.947L170.316 124.249Z" fill="#FFC3BD"/>
<path d="M163.228 184.656L168.579 188.822L160.415 195.574C160.415 195.574 156.692 191.983 157.266 187.565L163.228 184.656Z" fill="#FFC3BD"/>
<path d="M170.758 194.904L165.312 201.907L160.403 195.562L168.58 188.822L170.758 194.904Z" fill="#FFC3BD"/>
<path d="M201.118 74.3533C201.274 75.0715 201.777 75.5504 202.244 75.5504C202.71 75.5504 202.986 74.7842 202.842 74.066C202.698 73.3477 202.184 72.8688 201.717 72.9287C201.25 72.9885 201.022 73.623 201.118 74.3533Z" fill="#263238"/>
<path d="M201.752 75.5983C203.07 77.6371 204.661 79.4858 206.481 81.0931C206.056 81.5482 205.537 81.905 204.96 82.1387C204.383 82.3723 203.762 82.4771 203.141 82.4458L201.752 75.5983Z" fill="#ED847E"/>
<path d="M197.694 70.8696C197.587 70.8658 197.485 70.8232 197.406 70.7499C197.365 70.7107 197.332 70.6634 197.309 70.6109C197.286 70.5584 197.274 70.5018 197.274 70.4446C197.274 70.3874 197.286 70.3308 197.309 70.2783C197.332 70.2258 197.365 70.1785 197.406 70.1393C197.858 69.618 198.429 69.2146 199.072 68.9643C199.715 68.7139 200.408 68.6242 201.094 68.7028C201.149 68.7122 201.203 68.7326 201.251 68.7626C201.299 68.7927 201.34 68.8319 201.373 68.8781C201.406 68.9242 201.429 68.9763 201.442 69.0315C201.454 69.0867 201.456 69.1438 201.447 69.1996C201.437 69.2554 201.417 69.3088 201.387 69.3568C201.357 69.4047 201.318 69.4463 201.271 69.4791C201.225 69.5119 201.173 69.5353 201.118 69.5479C201.063 69.5605 201.006 69.5622 200.95 69.5528C200.405 69.5052 199.856 69.5892 199.35 69.7974C198.844 70.0057 198.395 70.3323 198.041 70.7499C197.995 70.7942 197.941 70.8279 197.881 70.8486C197.821 70.8693 197.757 70.8764 197.694 70.8696Z" fill="#263238"/>
<path d="M180.515 84.5408C181.832 91.2566 183.149 103.551 178.456 108.028C178.456 108.028 180.288 114.828 192.75 114.828C206.457 114.828 199.31 108.028 199.31 108.028C191.828 106.233 192.019 100.69 193.324 95.4705L180.515 84.5408Z" fill="#FFC3BD"/>
<path d="M175.798 108.531C174.804 106.137 176.995 98.9541 179.21 98.2718C181.712 97.5056 191.181 97.9366 195.969 99.9118C199.333 103.312 200.303 110.363 200.303 110.363L175.798 108.531Z" fill="#263238"/>
<path d="M136.652 422.01C137.02 422.142 137.411 422.199 137.802 422.179C138.192 422.158 138.575 422.06 138.927 421.89C139.066 421.768 139.162 421.604 139.201 421.423C139.24 421.242 139.219 421.053 139.142 420.884C139.101 420.743 139.029 420.611 138.931 420.5C138.834 420.388 138.714 420.299 138.58 420.238C137.383 419.651 134.498 420.813 134.378 420.86C134.339 420.875 134.305 420.901 134.282 420.936C134.258 420.97 134.246 421.01 134.246 421.052C134.246 421.094 134.256 421.135 134.277 421.171C134.299 421.206 134.329 421.236 134.366 421.256C135.097 421.592 135.864 421.845 136.652 422.01ZM138.137 420.549L138.4 420.633C138.478 420.668 138.547 420.719 138.603 420.783C138.658 420.847 138.7 420.923 138.723 421.004C138.843 421.399 138.723 421.519 138.652 421.555C138.161 421.974 136.329 421.555 135.06 421.076C136.033 420.672 137.085 420.492 138.137 420.549Z" fill="#407BFF"/>
<path d="M134.413 421.279H134.521C135.562 420.98 137.777 419.4 137.801 418.358C137.804 418.197 137.751 418.039 137.651 417.912C137.55 417.785 137.409 417.698 137.25 417.664C137.093 417.608 136.925 417.585 136.758 417.597C136.591 417.61 136.428 417.657 136.281 417.736C135.083 418.358 134.281 420.908 134.257 421.016C134.237 421.048 134.227 421.086 134.227 421.124C134.227 421.162 134.237 421.199 134.257 421.232L134.413 421.279ZM137.011 418.035H137.107C137.37 418.131 137.37 418.263 137.37 418.311C137.37 418.933 135.886 420.166 134.82 420.705C135.103 419.695 135.682 418.794 136.484 418.119C136.645 418.033 136.831 418.003 137.011 418.035Z" fill="#407BFF"/>
<path d="M202.842 423.554C204.039 423.554 205.164 423.386 205.535 422.86C205.635 422.722 205.689 422.557 205.689 422.387C205.689 422.217 205.635 422.051 205.535 421.914C205.46 421.787 205.36 421.676 205.241 421.59C205.121 421.503 204.985 421.442 204.841 421.411C203.32 420.992 200.112 422.812 199.98 422.896C199.941 422.917 199.909 422.951 199.89 422.992C199.871 423.033 199.865 423.079 199.873 423.123C199.88 423.165 199.899 423.204 199.93 423.234C199.96 423.264 199.998 423.284 200.04 423.291C200.964 423.462 201.902 423.55 202.842 423.554ZM204.302 421.77C204.444 421.771 204.585 421.791 204.721 421.83C204.809 421.845 204.892 421.88 204.965 421.931C205.038 421.983 205.098 422.051 205.14 422.129C205.296 422.393 205.248 422.536 205.14 422.608C204.709 423.207 202.399 423.219 200.687 422.979C201.8 422.341 203.029 421.93 204.302 421.77Z" fill="#407BFF"/>
<path d="M200.076 423.302H200.16C201.274 422.812 203.464 420.824 203.297 419.783C203.297 419.544 203.081 419.244 202.483 419.184C202.268 419.158 202.051 419.178 201.844 419.242C201.638 419.306 201.448 419.413 201.286 419.555C200.088 420.513 199.873 422.979 199.861 423.087C199.855 423.124 199.86 423.161 199.874 423.195C199.889 423.229 199.914 423.258 199.945 423.279C199.984 423.303 200.031 423.312 200.076 423.302ZM202.315 419.579H202.447C202.83 419.579 202.854 419.771 202.866 419.819C202.974 420.441 201.477 421.998 200.352 422.68C200.451 421.637 200.869 420.651 201.549 419.855C201.764 419.676 202.035 419.579 202.315 419.579Z" fill="#407BFF"/>
<path d="M189.996 423.075H199.166L200.076 401.85H190.906L189.996 423.075Z" fill="#FFC3BD"/>
<path d="M123.818 418.837L133.024 420.777L139.525 401L130.307 399.049L123.818 418.837Z" fill="#FFC3BD"/>
<path d="M134.078 419.879L124.011 417.7C123.833 417.661 123.647 417.684 123.484 417.764C123.321 417.845 123.19 417.978 123.113 418.143L119.617 425.733C119.534 425.918 119.494 426.12 119.5 426.323C119.505 426.526 119.556 426.725 119.65 426.906C119.743 427.086 119.875 427.244 120.038 427.366C120.2 427.488 120.388 427.572 120.587 427.612C124.118 428.306 125.866 428.474 130.296 429.432C133.013 430.018 139.166 431.515 142.925 432.329C146.684 433.143 147.989 429.528 146.517 428.857C139.944 425.852 137.191 423.207 135.419 420.741C135.092 420.299 134.616 419.993 134.078 419.879Z" fill="#263238"/>
<path d="M199.106 422.022H189.146C188.965 422.023 188.789 422.084 188.648 422.197C188.507 422.31 188.408 422.468 188.368 422.644L186.56 430.797C186.512 430.993 186.51 431.199 186.554 431.396C186.599 431.594 186.688 431.779 186.815 431.937C186.943 432.094 187.105 432.22 187.289 432.305C187.473 432.389 187.674 432.43 187.877 432.425C191.468 432.365 196.712 432.161 201.249 432.161C206.552 432.161 204.493 432.449 210.718 432.449C214.489 432.449 215.506 428.642 213.95 428.295C206.767 426.726 207.569 426.559 201.368 422.74C200.699 422.287 199.913 422.038 199.106 422.022Z" fill="#263238"/>
<path d="M162.031 110.135C153.435 112.099 146.36 134.078 146.36 134.078L163.611 147.246C168.079 142.484 171.235 136.643 172.769 130.295C175.726 118.719 170.818 108.076 162.031 110.135Z" fill="#263238"/>
<path opacity="0.2" d="M169.406 126.237C164.737 130.845 163.217 139.261 162.846 146.588L163.612 147.174C168.085 142.415 171.242 136.573 172.77 130.223C172.949 129.541 173.093 128.846 173.225 128.176L169.406 126.237Z" fill="black"/>
<path d="M213.413 110.566C213.413 110.566 223.169 121.592 213.951 189.828H164.869C164.534 182.298 169.263 145.534 161.996 110.099C167.42 109.055 172.907 108.363 178.421 108.028C185.366 107.621 192.329 107.621 199.274 108.028C204.046 108.505 208.773 109.354 213.413 110.566Z" fill="#263238"/>
<path opacity="0.2" d="M200.077 401.85L199.61 412.792H190.428L190.895 401.85H200.077Z" fill="black"/>
<path opacity="0.2" d="M130.307 399.061L139.525 401L136.161 411.2L126.955 409.26L130.307 399.061Z" fill="black"/>
<path d="M176.684 77.7291C179.078 86.516 179.964 91.7834 185.387 95.4346C193.552 100.941 203.715 94.6325 204.026 85.3069C204.314 76.9271 200.435 63.9622 190.978 62.1905C188.9 61.7885 186.754 61.9248 184.744 62.5864C182.734 63.2481 180.927 64.413 179.494 65.9705C178.062 67.5279 177.051 69.426 176.559 71.4842C176.068 73.5424 176.11 75.6922 176.684 77.7291Z" fill="#FFC3BD"/>
<path d="M185.446 94.417H185.327C183.909 94.4248 182.511 94.0944 181.247 93.4531C179.983 92.8118 178.891 91.8782 178.06 90.7298C175.307 86.8871 171.44 80.2191 170.997 72.5216C174.493 68.8345 187.625 66.4043 193.479 67.7331C198.351 68.8464 197.645 82.7211 193.036 90.227C192.23 91.5117 191.111 92.5703 189.783 93.3032C188.455 94.0362 186.963 94.4195 185.446 94.417Z" fill="#FFC3BD"/>
<path opacity="0.8" d="M185.446 94.417H185.327C183.909 94.4248 182.511 94.0944 181.247 93.4531C179.983 92.8118 178.891 91.8782 178.06 90.7298C175.307 86.8871 171.44 80.2191 170.997 72.5216C174.493 68.8345 187.625 66.4043 193.479 67.7331C198.351 68.8464 197.645 82.7211 193.036 90.227C192.23 91.5117 191.111 92.5703 189.783 93.3032C188.455 94.0362 186.963 94.4195 185.446 94.417Z" fill="#263238"/>
<path d="M176.324 75.6461C174.755 75.6027 173.234 75.0935 171.955 74.1832C170.676 73.273 169.697 72.0029 169.142 70.5344C168.1 67.4219 169.201 60.8497 175.462 60.6582C181.723 60.4666 182.37 56.8992 180.442 56.169C184.537 56.4682 183.244 59.3294 183.244 59.3294C184.333 59.3294 185.363 56.3964 191.624 56.6358C197.885 56.8753 200.937 55.5345 200.135 54.1339C203.092 54.7324 202.266 58.3238 199.764 59.2934C199.764 59.2934 205.69 63.7827 207.09 61.3166C208.084 63.1123 206.121 65.2671 198.639 64.2854C201.62 68.4634 194.557 67.5296 191.552 69.4211C188.547 71.3126 180.454 75.9454 176.324 75.6461Z" fill="#263238"/>
<path d="M191.636 77.3221C192.24 79.5002 193.539 81.4213 195.335 82.793C197.729 84.5647 199.501 82.793 199.333 80.1114C199.19 77.7172 197.753 73.8265 195.132 73.1082C192.51 72.39 190.954 74.6765 191.636 77.3221Z" fill="#FFC3BD"/>
<path d="M196.556 189.828C196.556 189.828 186.141 259.907 180.431 286.16C174.182 314.891 140.626 410.026 140.626 410.026L124.214 406.435C124.214 406.435 147.677 328.909 152.945 288.722C156.979 257.848 164.916 189.78 164.916 189.78L196.556 189.828Z" fill="#263238"/>
<path d="M144.565 404.556L141.5 410.541L123.028 406.543L124.585 400.988L144.565 404.556Z" fill="#407BFF"/>
<path opacity="0.3" d="M189.973 214.8C177.942 217.194 179.198 262.026 180.671 285.107C184.131 268.79 189.218 237.401 192.642 215.123C191.813 214.721 190.874 214.608 189.973 214.8Z" fill="black"/>
<path d="M213.95 189.828C213.95 189.828 215.219 258.387 214.213 286.352C213.184 315.442 203.02 410.685 203.02 410.685H187.458C187.458 410.685 186.895 317.142 186.201 288.578C185.446 257.453 181.688 189.828 181.688 189.828H213.95Z" fill="#263238"/>
<path d="M206.013 404.496C206.085 404.496 205.127 410.936 205.127 410.936H186.236L185.722 405.19L206.013 404.496Z" fill="#407BFF"/>
<path d="M213.64 109.357C216.034 110.351 218.344 112.134 219.039 118.06C219.709 123.746 218.416 173.583 216.86 189.492C216.838 190.038 216.623 190.559 216.252 190.96C215.881 191.362 215.379 191.618 214.837 191.683C205.032 192.102 174.661 188.008 164.414 189.804C163.217 190.019 162.175 188.702 162.247 187.505C163.049 172.002 161.888 146.983 159.997 131.097C158.799 120.718 158.8 109.86 167.455 108.016C173.895 106.652 204.278 105.454 213.64 109.357Z" fill="#407BFF"/>
<path d="M217.434 123.124C217.984 125.758 218.631 128.619 219.229 131.348C219.828 134.078 220.57 136.843 221.336 139.537C222.102 142.23 222.892 144.876 223.802 147.402C224.62 149.797 225.645 152.116 226.867 154.333C227.313 155.185 227.846 155.987 228.459 156.727C228.687 156.979 228.866 157.146 228.914 157.194C228.962 157.242 228.914 157.302 229.141 157.374C229.912 157.629 230.725 157.735 231.536 157.685C232.74 157.633 233.939 157.505 235.127 157.302C240.532 156.164 245.84 154.603 251.001 152.633L254.485 158.619C249.537 162.591 243.994 165.758 238.06 168.004C236.404 168.612 234.697 169.073 232.96 169.381C230.859 169.778 228.704 169.81 226.592 169.477C225.233 169.246 223.92 168.802 222.701 168.16C221.602 167.546 220.581 166.802 219.66 165.945C218.2 164.581 216.91 163.046 215.817 161.372C212.436 155.813 209.815 149.826 208.024 143.571C207.126 140.614 206.3 137.657 205.63 134.676C204.96 131.695 204.289 128.798 203.774 125.626L217.434 123.124Z" fill="#FFC3BD"/>
<path d="M197.263 119.533C189.817 134.509 207.51 151.436 207.51 151.436L227.239 141.141C225.861 133.204 223.601 125.446 220.499 118.012C214.753 105.227 201.548 110.925 197.263 119.533Z" fill="#263238"/>
<path d="M249.169 153.471L255.861 149.066L258.638 159.074C258.638 159.074 255.645 162.581 250.163 158.762L249.169 153.471Z" fill="#FFC3BD"/>
<path d="M261.692 153.112L261.477 155.219C261.368 156.23 260.881 157.162 260.112 157.829L258.64 159.026L255.862 149.018L256.712 148.802C257.339 148.639 257.997 148.631 258.628 148.779C259.259 148.926 259.845 149.225 260.335 149.649C260.825 150.073 261.204 150.609 261.441 151.213C261.677 151.816 261.764 152.468 261.692 153.112Z" fill="#FFC3BD"/>
</svg>
