<svg width="90" height="31" viewBox="0 0 90 31" fill="none" xmlns="http://www.w3.org/2000/svg">
<rect width="90" height="31" rx="15.5" fill="#F1F5F9"/>
<rect width="45" height="31" rx="15.5" fill="#52B6DF"/>
<g clip-path="url(#clip0_21_2611)">
<path d="M27.6667 9.33333H27V8.66667C27 8.48986 26.9298 8.32029 26.8047 8.19526C26.6797 8.07024 26.5101 8 26.3333 8C26.1565 8 25.987 8.07024 25.8619 8.19526C25.7369 8.32029 25.6667 8.48986 25.6667 8.66667V9.33333H20.3333V8.66667C20.3333 8.48986 20.2631 8.32029 20.1381 8.19526C20.013 8.07024 19.8435 8 19.6667 8C19.4899 8 19.3203 8.07024 19.1953 8.19526C19.0702 8.32029 19 8.48986 19 8.66667V9.33333H18.3333C17.4496 9.33439 16.6024 9.68592 15.9775 10.3108C15.3526 10.9357 15.0011 11.7829 15 12.6667L15 20.6667C15.0011 21.5504 15.3526 22.3976 15.9775 23.0225C16.6024 23.6474 17.4496 23.9989 18.3333 24H27.6667C28.5504 23.9989 29.3976 23.6474 30.0225 23.0225C30.6474 22.3976 30.9989 21.5504 31 20.6667V12.6667C30.9989 11.7829 30.6474 10.9357 30.0225 10.3108C29.3976 9.68592 28.5504 9.33439 27.6667 9.33333ZM16.3333 12.6667C16.3333 12.1362 16.544 11.6275 16.9191 11.2525C17.2942 10.8774 17.8029 10.6667 18.3333 10.6667H27.6667C28.1971 10.6667 28.7058 10.8774 29.0809 11.2525C29.456 11.6275 29.6667 12.1362 29.6667 12.6667V13.3333H16.3333V12.6667ZM27.6667 22.6667H18.3333C17.8029 22.6667 17.2942 22.456 16.9191 22.0809C16.544 21.7058 16.3333 21.1971 16.3333 20.6667V14.6667H29.6667V20.6667C29.6667 21.1971 29.456 21.7058 29.0809 22.0809C28.7058 22.456 28.1971 22.6667 27.6667 22.6667Z" fill="white"/>
<path d="M23 19C23.5523 19 24 18.5523 24 18C24 17.4477 23.5523 17 23 17C22.4477 17 22 17.4477 22 18C22 18.5523 22.4477 19 23 19Z" fill="white"/>
<path d="M19.667 19C20.2193 19 20.667 18.5523 20.667 18C20.667 17.4477 20.2193 17 19.667 17C19.1147 17 18.667 17.4477 18.667 18C18.667 18.5523 19.1147 19 19.667 19Z" fill="white"/>
<path d="M26.333 19C26.8853 19 27.333 18.5523 27.333 18C27.333 17.4477 26.8853 17 26.333 17C25.7807 17 25.333 17.4477 25.333 18C25.333 18.5523 25.7807 19 26.333 19Z" fill="white"/>
</g>
<rect x="45" width="45" height="31" rx="15.5" fill="#F1F5F9"/>
<path d="M64.6667 12H75.3333C75.5101 12 75.6797 11.9298 75.8047 11.8048C75.9298 11.6797 76 11.5102 76 11.3334C76 11.1565 75.9298 10.987 75.8047 10.8619C75.6797 10.7369 75.5101 10.6667 75.3333 10.6667H64.6667C64.4899 10.6667 64.3203 10.7369 64.1953 10.8619C64.0702 10.987 64 11.1565 64 11.3334C64 11.5102 64.0702 11.6797 64.1953 11.8048C64.3203 11.9298 64.4899 12 64.6667 12Z" fill="#64748B"/>
<path d="M75.3333 15.3333H64.6667C64.4899 15.3333 64.3203 15.4036 64.1953 15.5286C64.0702 15.6536 64 15.8232 64 16C64 16.1768 64.0702 16.3464 64.1953 16.4714C64.3203 16.5964 64.4899 16.6666 64.6667 16.6666H75.3333C75.5101 16.6666 75.6797 16.5964 75.8047 16.4714C75.9298 16.3464 76 16.1768 76 16C76 15.8232 75.9298 15.6536 75.8047 15.5286C75.6797 15.4036 75.5101 15.3333 75.3333 15.3333Z" fill="#64748B"/>
<path d="M75.3333 20H64.6667C64.4899 20 64.3203 20.0702 64.1953 20.1953C64.0702 20.3203 64 20.4899 64 20.6667C64 20.8435 64.0702 21.013 64.1953 21.1381C64.3203 21.2631 64.4899 21.3333 64.6667 21.3333H75.3333C75.5101 21.3333 75.6797 21.2631 75.8047 21.1381C75.9298 21.013 76 20.8435 76 20.6667C76 20.4899 75.9298 20.3203 75.8047 20.1953C75.6797 20.0702 75.5101 20 75.3333 20Z" fill="#64748B"/>
<path d="M61.3333 12.6667C62.0697 12.6667 62.6667 12.0697 62.6667 11.3333C62.6667 10.597 62.0697 10 61.3333 10C60.597 10 60 10.597 60 11.3333C60 12.0697 60.597 12.6667 61.3333 12.6667Z" fill="#64748B"/>
<path d="M61.3333 17.3334C62.0697 17.3334 62.6667 16.7364 62.6667 16C62.6667 15.2636 62.0697 14.6667 61.3333 14.6667C60.597 14.6667 60 15.2636 60 16C60 16.7364 60.597 17.3334 61.3333 17.3334Z" fill="#64748B"/>
<path d="M61.3333 22C62.0697 22 62.6667 21.403 62.6667 20.6666C62.6667 19.9303 62.0697 19.3333 61.3333 19.3333C60.597 19.3333 60 19.9303 60 20.6666C60 21.403 60.597 22 61.3333 22Z" fill="#64748B"/>
<defs>
<clipPath id="clip0_21_2611">
<rect width="16" height="16" fill="white" transform="translate(15 8)"/>
</clipPath>
</defs>
</svg>
