<svg width="105" height="105" viewBox="0 0 105 105" fill="none" xmlns="http://www.w3.org/2000/svg">
<path d="M52.5 63.9844C62.1284 63.9844 69.9316 56.2734 69.9316 46.7578V23.7891C69.9316 14.2734 62.1284 6.5625 52.5 6.5625C42.8716 6.5625 35.0684 14.2734 35.0684 23.7891V46.7578C35.0684 56.2734 42.8716 63.9844 52.5 63.9844ZM86.3379 46.5527C86.3379 46.1016 85.9688 45.7324 85.5176 45.7324H79.3652C78.9141 45.7324 78.5449 46.1016 78.5449 46.5527C78.5449 60.939 66.8862 72.5977 52.5 72.5977C38.1138 72.5977 26.4551 60.939 26.4551 46.5527C26.4551 46.1016 26.0859 45.7324 25.6348 45.7324H19.4824C19.0312 45.7324 18.6621 46.1016 18.6621 46.5527C18.6621 63.8511 31.6436 78.1245 48.3984 80.1445V90.6445H33.4995C32.0947 90.6445 30.9668 92.1108 30.9668 93.9258V97.6172C30.9668 98.0684 31.2539 98.4375 31.6025 98.4375H73.3975C73.7461 98.4375 74.0332 98.0684 74.0332 97.6172V93.9258C74.0332 92.1108 72.9053 90.6445 71.5005 90.6445H56.1914V80.1958C73.1411 78.3501 86.3379 63.9946 86.3379 46.5527Z" fill="black"/>
</svg>
