<svg width="54" height="54" viewBox="0 0 54 54" fill="none" xmlns="http://www.w3.org/2000/svg">
<path d="M23.0667 36.6667L36.0667 28.3333C36.6889 27.9333 37 27.3778 37 26.6667C37 25.9556 36.6889 25.4 36.0667 25L23.0667 16.6667C22.4 16.2222 21.7218 16.1884 21.032 16.5653C20.3422 16.9422 19.9982 17.5316 20 18.3333V35C20 35.8 20.3449 36.3893 21.0347 36.768C21.7244 37.1467 22.4018 37.1129 23.0667 36.6667ZM26.6667 53.3333C22.9778 53.3333 19.5111 52.6329 16.2667 51.232C13.0222 49.8311 10.2 47.9316 7.8 45.5333C5.4 43.1333 3.50044 40.3111 2.10133 37.0667C0.702222 33.8222 0.00177778 30.3556 0 26.6667C0 22.9778 0.700445 19.5111 2.10133 16.2667C3.50222 13.0222 5.40178 10.2 7.8 7.8C10.2 5.4 13.0222 3.50044 16.2667 2.10133C19.5111 0.702222 22.9778 0.00177778 26.6667 0C30.3556 0 33.8222 0.700445 37.0667 2.10133C40.3111 3.50222 43.1333 5.40178 45.5333 7.8C47.9333 10.2 49.8338 13.0222 51.2347 16.2667C52.6356 19.5111 53.3351 22.9778 53.3333 26.6667C53.3333 30.3556 52.6329 33.8222 51.232 37.0667C49.8311 40.3111 47.9316 43.1333 45.5333 45.5333C43.1333 47.9333 40.3111 49.8338 37.0667 51.2347C33.8222 52.6356 30.3556 53.3351 26.6667 53.3333Z" fill="white"/>
</svg>
