<svg width="43" height="50" viewBox="0 0 43 50" fill="none" xmlns="http://www.w3.org/2000/svg">
<path d="M18.6667 49.2C13.2889 48.5333 8.83378 46.1893 5.30133 42.168C1.76889 38.1467 0.00177778 33.424 0 28C0 25.0667 0.577778 22.256 1.73333 19.568C2.88889 16.88 4.53333 14.5351 6.66667 12.5333L10.4667 16.3333C8.77778 17.8444 7.50044 19.6 6.63467 21.6C5.76889 23.6 5.33511 25.7333 5.33333 28C5.33333 31.9111 6.57778 35.3671 9.06667 38.368C11.5556 41.3689 14.7556 43.2018 18.6667 43.8667V49.2ZM24 49.2V43.8667C27.8667 43.1556 31.056 41.3111 33.568 38.3333C36.08 35.3556 37.3351 31.9111 37.3333 28C37.3333 23.5556 35.7778 19.7778 32.6667 16.6667C29.5556 13.5556 25.7778 12 21.3333 12H21.1333L24.0667 14.9333L20.3333 18.6667L11 9.33333L20.3333 0L24.0667 3.73333L21.1333 6.66667H21.3333C27.2889 6.66667 32.3333 8.73333 36.4667 12.8667C40.6 17 42.6667 22.0444 42.6667 28C42.6667 33.3778 40.9004 38.0782 37.368 42.1013C33.8356 46.1244 29.3796 48.4907 24 49.2Z" fill="white"/>
</svg>
