<svg width="33" height="33" viewBox="0 0 33 33" fill="none" xmlns="http://www.w3.org/2000/svg">
<rect x="0.5" y="0.412109" width="32" height="32" rx="16" fill="#F59E0B"/>
<g clip-path="url(#clip0_21_2791)">
<path d="M22.9167 22.2454H11.25C11.0953 22.2454 10.9469 22.184 10.8375 22.0746C10.7281 21.9652 10.6667 21.8168 10.6667 21.6621V9.99544C10.6667 9.84073 10.6052 9.69236 10.4958 9.58296C10.3864 9.47357 10.238 9.41211 10.0833 9.41211C9.92862 9.41211 9.78025 9.47357 9.67085 9.58296C9.56146 9.69236 9.5 9.84073 9.5 9.99544V21.6621C9.5 22.1262 9.68437 22.5714 10.0126 22.8995C10.3408 23.2277 10.7859 23.4121 11.25 23.4121H22.9167C23.0714 23.4121 23.2197 23.3507 23.3291 23.2413C23.4385 23.1319 23.5 22.9835 23.5 22.8288C23.5 22.6741 23.4385 22.5257 23.3291 22.4163C23.2197 22.3069 23.0714 22.2454 22.9167 22.2454Z" fill="white"/>
<path d="M18.2503 21.0787C18.405 21.0787 18.5534 21.0173 18.6628 20.9079C18.7722 20.7985 18.8337 20.6501 18.8337 20.4954V16.4121C18.8337 16.2574 18.7722 16.109 18.6628 15.9996C18.5534 15.8902 18.405 15.8287 18.2503 15.8287C18.0956 15.8287 17.9472 15.8902 17.8378 15.9996C17.7285 16.109 17.667 16.2574 17.667 16.4121V20.4954C17.667 20.6501 17.7285 20.7985 17.8378 20.9079C17.9472 21.0173 18.0956 21.0787 18.2503 21.0787Z" fill="white"/>
<path d="M13.5833 21.0787C13.738 21.0787 13.8864 21.0173 13.9958 20.9079C14.1052 20.7985 14.1667 20.6501 14.1667 20.4954V16.4121C14.1667 16.2574 14.1052 16.109 13.9958 15.9996C13.8864 15.8902 13.738 15.8287 13.5833 15.8287C13.4286 15.8287 13.2803 15.8902 13.1709 15.9996C13.0615 16.109 13 16.2574 13 16.4121V20.4954C13 20.6501 13.0615 20.7985 13.1709 20.9079C13.2803 21.0173 13.4286 21.0787 13.5833 21.0787Z" fill="white"/>
<path d="M20.5833 21.0788C20.738 21.0788 20.8864 21.0173 20.9958 20.9079C21.1052 20.7985 21.1667 20.6502 21.1667 20.4954V13.4954C21.1667 13.3407 21.1052 13.1924 20.9958 13.083C20.8864 12.9736 20.738 12.9121 20.5833 12.9121C20.4286 12.9121 20.2803 12.9736 20.1709 13.083C20.0615 13.1924 20 13.3407 20 13.4954V20.4954C20 20.6502 20.0615 20.7985 20.1709 20.9079C20.2803 21.0173 20.4286 21.0788 20.5833 21.0788Z" fill="white"/>
<path d="M15.9163 21.0788C16.0711 21.0788 16.2194 21.0173 16.3288 20.9079C16.4382 20.7985 16.4997 20.6502 16.4997 20.4954V13.4954C16.4997 13.3407 16.4382 13.1924 16.3288 13.083C16.2194 12.9736 16.0711 12.9121 15.9163 12.9121C15.7616 12.9121 15.6133 12.9736 15.5039 13.083C15.3945 13.1924 15.333 13.3407 15.333 13.4954V20.4954C15.333 20.6502 15.3945 20.7985 15.5039 20.9079C15.6133 21.0173 15.7616 21.0788 15.9163 21.0788Z" fill="white"/>
</g>
<defs>
<clipPath id="clip0_21_2791">
<rect width="14" height="14" fill="white" transform="translate(9.5 9.41211)"/>
</clipPath>
</defs>
</svg>
