<svg width="51" height="51" viewBox="0 0 51 51" fill="none" xmlns="http://www.w3.org/2000/svg">
<path d="M42.5399 35.3331L42.7489 35.5421C43.2234 36.0206 43.8112 36.3714 44.4577 36.5618C45.1042 36.7522 45.7883 36.7761 46.4465 36.6311C47.094 36.4952 47.697 36.1986 48.1999 35.7687C48.7029 35.3388 49.0896 34.7894 49.3247 34.1709C50.4787 31.1407 51.0304 27.9145 50.9488 24.673C50.7136 18.3063 48.0949 12.2603 43.6117 7.73339C39.1286 3.20652 33.1083 0.529235 26.7442 0.232191C23.3789 0.115177 20.0245 0.676967 16.881 1.88407C13.7375 3.09117 10.8693 4.91886 8.44724 7.25819C6.02521 9.59751 4.099 12.4006 2.78346 15.5003C1.46792 18.5999 0.78997 21.9328 0.790039 25.3001C0.797784 31.95 3.44288 38.3253 8.14509 43.0275C12.8473 47.7297 19.2226 50.3748 25.8725 50.3826C26.579 50.3826 27.273 50.3366 27.9628 50.2781C28.4861 50.2339 28.9737 49.9944 29.3285 49.6071C29.6833 49.2198 29.8792 48.7131 29.8774 48.1879L29.8105 40.6882C29.7936 39.2062 30.2187 37.7527 31.0317 36.5135C31.8446 35.2742 33.0085 34.3054 34.3746 33.7306C35.7408 33.1559 37.2472 33.0014 38.7016 33.2868C40.156 33.5722 41.4923 34.2846 42.5399 35.3331ZM36.3905 17.0437C36.9898 16.8847 37.6228 16.907 38.2095 17.1077C38.7962 17.3084 39.3102 17.6786 39.6865 18.1714C40.0628 18.6642 40.2845 19.2575 40.3237 19.8764C40.3628 20.4952 40.2175 21.1117 39.9063 21.648C39.595 22.1843 39.1318 22.6162 38.575 22.8892C38.0183 23.1623 37.3931 23.2641 36.7785 23.1818C36.164 23.0995 35.5876 22.8368 35.1223 22.427C34.657 22.0172 34.3236 21.4785 34.1644 20.8793C34.0587 20.4813 34.0324 20.0663 34.087 19.6581C34.1417 19.25 34.2762 18.8565 34.4829 18.5004C34.6896 18.1442 34.9645 17.8322 35.2918 17.5823C35.6191 17.3324 35.9924 17.1494 36.3905 17.0437ZM17.0978 35.6466C16.4985 35.8056 15.8655 35.7834 15.2788 35.5827C14.6921 35.3819 14.1782 35.0118 13.8018 34.519C13.4255 34.0261 13.2038 33.4328 13.1647 32.814C13.1255 32.1952 13.2708 31.5786 13.582 31.0423C13.8933 30.5061 14.3566 30.0741 14.9133 29.8011C15.47 29.5281 16.0952 29.4263 16.7098 29.5086C17.3244 29.5908 17.9007 29.8535 18.3661 30.2633C18.8314 30.6732 19.1647 31.2118 19.3239 31.8111C19.4297 32.2091 19.456 32.624 19.4013 33.0322C19.3467 33.4404 19.2122 33.8338 19.0054 34.19C18.7987 34.5462 18.5238 34.8581 18.1965 35.108C17.8692 35.358 17.4959 35.541 17.0978 35.6466ZM17.0978 23.1053C16.4985 23.2644 15.8655 23.2421 15.2788 23.0414C14.6921 22.8407 14.1782 22.4705 13.8018 21.9777C13.4255 21.4849 13.2038 20.8916 13.1647 20.2727C13.1255 19.6539 13.2708 19.0374 13.582 18.5011C13.8933 17.9648 14.3566 17.5328 14.9133 17.2598C15.47 16.9868 16.0952 16.885 16.7098 16.9673C17.3244 17.0496 17.9007 17.3123 18.3661 17.7221C18.8314 18.1319 19.1647 18.6705 19.3239 19.2698C19.4297 19.6678 19.456 20.0828 19.4013 20.4909C19.3467 20.8991 19.2122 21.2925 19.0054 21.6487C18.7987 22.0049 18.5238 22.3169 18.1965 22.5668C17.8692 22.8167 17.4959 22.9997 17.0978 23.1053ZM27.5489 16.8347C26.9496 16.9937 26.3165 16.9715 25.7299 16.7708C25.1432 16.5701 24.6292 16.1999 24.2529 15.7071C23.8766 15.2143 23.6548 14.6209 23.6157 14.0021C23.5766 13.3833 23.7218 12.7667 24.0331 12.2305C24.3443 11.6942 24.8076 11.2622 25.3643 10.9892C25.9211 10.7162 26.5462 10.6144 27.1608 10.6967C27.7754 10.779 28.3518 11.0416 28.8171 11.4515C29.2824 11.8613 29.6157 12.3999 29.775 12.9992C29.8807 13.3972 29.907 13.8121 29.8524 14.2203C29.7977 14.6285 29.6632 15.0219 29.4565 15.3781C29.2498 15.7343 28.9749 16.0462 28.6476 16.2962C28.3203 16.5461 27.9469 16.7291 27.5489 16.8347Z" fill="#27487F"/>
</svg>
